<svg width="344" height="276" viewBox="0 0 344 276" fill="none" xmlns="http://www.w3.org/2000/svg">
<path d="M122.765 221.149H61.7783C61.7783 221.149 43.6632 220.138 44.0692 225.637C44.548 232.108 114.723 227.841 119.854 231.911C124.985 235.98 127.668 240.763 136.817 243.089C145.966 245.414 163.305 239.495 211.904 245.973C241.315 239.917 146.024 221.149 122.765 221.149Z" fill="#5AD2D6"/>
<path d="M50.0782 52.4802C49.997 41.4306 70.8998 39.8091 70.6549 45.6216L108.18 45.7527C112.522 45.8135 116.028 49.7561 116.013 54.5544L115.519 214.823C115.504 219.52 112.016 223.324 107.724 223.326L67.9744 223.526C67.5933 224.308 66.875 225.017 65.7426 225.605C54.619 225.517 49.5635 221.123 49.5209 215.467C49.104 214.425 49.6296 54.5585 50.0782 52.4802Z" fill="#027273"/>
<path d="M54.3658 118.245C55.2877 118.266 56.0472 117.536 56.0555 116.623L56.4119 74.7782C56.4201 73.8509 55.6661 73.0739 54.7373 73.0532C53.8085 73.0311 53.0434 73.7736 53.0352 74.7009L52.7022 116.547C52.6967 117.46 53.4438 118.225 54.3658 118.245Z" fill="#013F40"/>
<path d="M66.4044 225.637L115.313 225.582C119.757 225.59 123.372 221.685 123.39 216.856L123.984 52.0195C124.002 47.0833 120.372 43.0371 115.874 42.9847L66.8241 42.3457C62.2902 42.2933 58.6052 46.2746 58.597 51.2343L58.3066 216.843C58.297 221.693 61.9241 225.629 66.4044 225.637Z" fill="#03C0C2"/>
<path d="M65.415 224.467C65.7109 224.508 66.0136 224.529 66.3149 224.529L115.211 224.397C119.031 224.399 122.17 220.974 122.185 216.76L122.765 52.1036C122.78 47.7939 119.628 44.2473 115.764 44.199L66.7277 43.48C66.6149 43.4786 66.5007 43.48 66.3893 43.4841C64.5757 43.5531 62.886 44.3673 61.6269 45.7736C60.3404 47.2101 59.6317 49.1215 59.629 51.1569L59.3276 216.932C59.3207 220.748 61.9283 223.985 65.415 224.467Z" fill="#0D0D0D"/>
<path d="M62.1567 52.0347L61.8292 217.201L119.811 217.197L120.366 52.5149L62.1567 52.0347Z" fill="white"/>
<path d="M122.434 67.7681H51.7073V222.781H122.434V67.7681Z" fill="#E6E6E6"/>
<path d="M131.056 203.355L16.3414 168.456L20.8863 164.666L128.668 192.775L131.056 203.355Z" fill="#04F2F5"/>
<path d="M15.2718 168.657L14.5871 171.027L145.114 208.957L145.799 206.587L15.2718 168.657Z" fill="white"/>
<path d="M77.7908 129.203C76.7836 129.101 75.7543 129.047 74.7058 129.047C73.6587 129.047 72.6253 129.101 71.6167 129.203C62.0961 130.159 53.9213 135.65 52.6967 142.861C51.3496 150.792 58.7511 157.984 69.949 159.36C71.1544 159.509 72.3983 159.589 73.6669 159.589C74.9356 159.589 76.185 159.509 77.4069 159.36C88.6984 157.984 96.5883 150.792 95.7806 142.861C95.0472 135.65 87.2467 130.159 77.7908 129.203ZM77.4757 154.029C76.3102 154.229 75.0897 154.334 73.8458 154.334C72.6019 154.334 71.3965 154.229 70.2434 154.029C63.0993 152.805 58.3218 148.124 59.0057 142.861C59.6482 137.924 64.9403 134.025 71.402 133.071C72.4285 132.918 73.4894 132.838 74.5765 132.838C75.6635 132.838 76.7258 132.918 77.7413 133.071C84.1383 134.029 89.1662 137.924 89.4717 142.861C89.7992 148.124 84.7038 152.799 77.4757 154.029Z" fill="#FFD84F"/>
<path d="M78.0344 110.035L77.7426 133.071C76.7272 132.918 75.6649 132.838 74.5778 132.838C73.4908 132.838 72.4299 132.918 71.4034 133.071L72.6776 110.035H78.0344Z" fill="#FFD84F"/>
<path d="M135.763 145.269H91.0224C91.2178 144.486 91.2907 143.676 91.2302 142.858C91.171 142.047 90.9853 141.266 90.6867 140.522H134.108L135.763 145.269Z" fill="#FFD84F"/>
<path d="M73.7165 158.162C74.9879 158.162 76.2359 158.041 77.4275 157.809L76.7574 217.244H67.113L70.0343 157.809C71.2121 158.041 72.445 158.162 73.7165 158.162Z" fill="#FFD84F"/>
<path d="M48.5013 125.226H37.3914L39.0358 119.74H50.6712L48.5013 125.226Z" fill="white"/>
<path d="M62.1251 125.226H51.0152L53.3021 119.74H64.9376L62.1251 125.226Z" fill="white"/>
<path d="M70.0191 119.74H67.1103L64.1987 125.226H69.6297L70.0191 119.74Z" fill="white"/>
<path d="M46.213 131.48H35.7017L37.1782 126.582H48.1573L46.213 131.48Z" fill="white"/>
<path d="M59.1501 131.298C59.1694 131.288 59.19 131.28 59.2093 131.272L61.6214 126.584H50.6409L48.5893 131.481H58.78C58.9038 131.419 59.0249 131.357 59.1501 131.298Z" fill="white"/>
<path d="M65.971 129.119C67.0952 128.926 68.2345 128.898 69.3697 128.888L69.5252 126.69H63.4199L61.4935 130.319C62.9218 129.8 64.4216 129.385 65.971 129.119Z" fill="white"/>
<path d="M44.0926 136.821H34.0918L35.4251 132.398H45.8483L44.0926 136.821Z" fill="white"/>
<path d="M57.104 132.398H48.2054L46.3533 136.821H52.3307C53.4053 135.13 55.0744 133.63 57.104 132.398Z" fill="white"/>
<path d="M86.699 142.861C86.9219 147.847 81.2088 152.125 73.9256 152.125C66.6424 152.125 61.2196 147.847 61.781 142.861C62.3094 138.17 68.0006 134.566 74.5214 134.566C81.0423 134.566 86.4899 138.169 86.699 142.861Z" fill="#03E484"/>
<path d="M74.6989 135.243C74.6989 135.243 85.5033 136.516 84.1424 142.087C82.6784 148.081 76.679 148.081 77.6009 144.217C78.4802 140.531 75.2769 139.73 73.5844 138.045C71.9263 136.395 71.8809 135.311 74.6989 135.243Z" fill="#04F2F5"/>
<path d="M79.8919 118.137L79.9112 127.646C79.9112 127.646 94.6702 130.522 96.9722 139.353C109.982 139.353 128.414 139.353 128.414 139.353L120.366 118.306L79.8919 118.137Z" fill="#03E484"/>
<path d="M114.046 156.124H100.228L98.4514 147.768H110.97L114.046 156.124Z" fill="white"/>
<path d="M131.211 156.124H117.395L114.004 147.768H126.523L131.211 156.124Z" fill="white"/>
<path d="M118.797 169.038H102.974L100.675 158.226H114.819L118.797 169.038Z" fill="white"/>
<path d="M138.456 169.038H122.633L118.247 158.226H132.39L138.456 169.038Z" fill="white"/>
<path d="M124.562 186.93L119.891 172.008H103.606L105.095 182.144L124.562 186.93Z" fill="white"/>
<path d="M90.761 158.226C88.7149 160.221 86.2215 162.052 83.2824 163.122L83.4916 169.038H99.2261L97.3259 158.226H90.761Z" fill="white"/>
<path d="M133.619 180.793C137.98 181.844 142.39 182.91 146.85 183.998L140.124 172.009H123.837L126.727 179.134C129.012 179.683 131.31 180.235 133.619 180.793Z" fill="white"/>
<path d="M33.3611 147.437C35.282 147.605 37.2263 147.735 39.1816 147.845C39.2587 147.223 39.3385 146.605 39.3949 145.993C39.5394 144.416 39.6206 142.866 39.5738 141.367C39.5683 141.191 39.5559 141.016 39.5476 140.84H32.9084L30.9146 147.199C31.7278 147.282 32.5424 147.364 33.3611 147.437Z" fill="white"/>
<path d="M31.6618 149.537C31.1829 149.49 30.7054 149.439 30.228 149.39L28.4708 154.994L37.6405 157.158C38.0904 154.715 38.528 152.341 38.8789 150.035C36.4544 149.906 34.034 149.771 31.6618 149.537Z" fill="white"/>
<path d="M42.1744 148.001C44.9168 148.132 47.6702 148.24 50.4139 148.37C49.3241 144.089 50.6492 140.84 50.6492 140.84H42.4936C42.4991 140.962 42.5033 141.085 42.5074 141.206C42.5817 143.395 42.4345 145.662 42.1744 148.001Z" fill="white"/>
<path d="M51.2106 150.658C48.1008 150.506 44.998 150.351 41.902 150.191C41.5621 152.674 41.13 155.238 40.6993 157.879L57.1687 161.765C57.1687 161.765 57.7191 160.724 57.6173 158.224C54.2351 155.74 52.2908 153.098 51.2106 150.658Z" fill="white"/>
<path d="M122.302 68.051H52.1463V118.806H122.302V68.051Z" fill="#94F3F7"/>
<path d="M84.119 171.814L99.3885 172.318L100.196 181.891L84.0227 177.252L84.119 171.814Z" fill="white"/>
<path d="M39.9068 159.912L56.4862 163.878L54.4772 171.436L37.8978 166.398L39.9068 159.912Z" fill="white"/>
<path d="M37.0185 158.965L34.506 165.767L29.1052 163.878L31.3659 157.465L37.0185 158.965Z" fill="white"/>
<path d="M60.0032 159.912L57.6172 172.066L66.9121 174.333L68.167 162.242L60.0032 159.912Z" fill="white"/>
<path d="M102.864 78.1773L96.3186 78.1234L75.281 52.1436L81.8555 52.1974L102.864 78.1773Z" fill="#0C2461"/>
<path d="M96.3186 78.1235L89.7771 78.0696L68.7051 52.0884L75.281 52.1436L96.3186 78.1235Z" fill="#F1E3E0"/>
<path d="M89.7771 78.0697L83.2315 78.0173L62.1347 52.0347L68.7051 52.0885L89.7771 78.0697Z" fill="#0C2461"/>
<path d="M109.406 78.231L102.864 78.1771L81.8555 52.1973L88.4259 52.2511L109.406 78.231Z" fill="#F1E3E0"/>
<path d="M122.492 78.3389L115.951 78.2851L95.0004 52.3052L101.571 52.359L122.492 78.3389Z" fill="#F1E3E0"/>
<path d="M141.48 78.4932L135.579 78.4449L114.716 52.4678L120.639 52.5161L141.48 78.4932Z" fill="#0C2461"/>
<path d="M135.579 78.445L129.037 78.3926L108.145 52.4141L114.716 52.4679L135.579 78.445Z" fill="#F1E3E0"/>
<path d="M115.951 78.2852L109.406 78.2313L88.4259 52.2515L95.0004 52.3053L115.951 78.2852Z" fill="#0C2461"/>
<path d="M129.037 78.3926L122.492 78.3388L101.571 52.3589L108.145 52.4141L129.037 78.3926Z" fill="#0C2461"/>
<path d="M89.7771 78.0697L89.7799 82.0248C89.7826 86.2158 83.2453 86.162 83.2384 81.9709L83.2315 78.0159L89.7771 78.0697Z" fill="#0C2461"/>
<path d="M96.3186 78.1236L96.3159 82.0787C96.3131 86.2698 89.7813 86.216 89.7785 82.0249L89.7758 78.0698L96.3186 78.1236Z" fill="#F1C5BC"/>
<path d="M102.864 78.1774L102.857 82.1324C102.851 86.3235 96.3131 86.2697 96.3159 82.0786L96.3186 78.1235L102.864 78.1774Z" fill="#0C2461"/>
<path d="M109.406 78.2313L109.395 82.1864C109.384 86.3774 102.851 86.3236 102.857 82.1326L102.864 78.1775L109.406 78.2313Z" fill="#F1C5BC"/>
<path d="M115.951 78.285L115.936 82.2401C115.92 86.4312 109.384 86.3773 109.395 82.1863L109.406 78.2312L115.951 78.285Z" fill="#0C2461"/>
<path d="M122.492 78.339L122.472 82.2941C122.452 86.4851 115.92 86.4313 115.936 82.2402L115.951 78.2852L122.492 78.339Z" fill="#F1C5BC"/>
<path d="M129.037 78.3927L129.012 82.3478C128.986 86.5374 122.45 86.485 122.471 82.294L122.49 78.3389L129.037 78.3927Z" fill="#0C2461"/>
<path d="M135.579 78.4452L135.55 82.4003C135.519 86.5899 128.988 86.5375 129.014 82.3464L129.039 78.3914L135.579 78.4452Z" fill="#F1C5BC"/>
<path d="M141.48 78.4934L141.447 82.4485C141.413 86.6381 135.52 86.5898 135.55 82.4001L135.579 78.4451L141.48 78.4934Z" fill="#0C2461"/>
<path d="M83.2315 78.0173L83.7434 78.0877L62.1058 77.8959L62.1347 52.0347L83.2315 78.0173Z" fill="#0C2461"/>
<path d="M81.129 183.017C78.0715 179.962 82.8916 172.629 90.0014 165.715C92.8704 162.924 96.1136 160.203 99.361 157.858C99.4724 157.802 99.5674 157.734 99.6389 157.658C99.6871 157.624 99.7366 157.588 99.7848 157.553C99.7848 157.519 99.7793 157.482 99.7683 157.446C99.7834 157.395 99.7889 157.341 99.782 157.287L97.8391 147.078L112.931 146.933C113.154 146.933 113.363 146.821 113.488 146.636C113.614 146.45 113.637 146.214 113.553 146.007L110.823 139.279C110.72 139.026 110.475 138.86 110.201 138.86H96.4439C96.1136 138.054 95.2798 136.315 93.6231 134.441C91.5838 132.132 87.8494 129.17 81.6463 128.161C80.2676 128.104 80.3309 129.352 81.4317 129.49C86.0729 130.243 89.8212 132.193 92.5745 135.284C94.633 137.596 95.3334 139.717 95.3403 139.738C95.4297 140.016 95.6871 140.205 95.9801 140.205H109.75L111.933 145.587H96.8539C95.8948 145.614 95.61 146.266 95.6334 147.1L96.6764 156.451C87.1104 161.815 76.3873 168.887 71.4901 173.227C64.8646 179.101 64.9403 189.39 73.0037 196.952C91.3788 214.184 121.14 225.779 152.275 233.507C214.733 249.01 256.199 251.803 260.341 252.181C274.464 253.345 292.803 251.195 291.116 235.199C289.429 219.204 316.143 220.279 319.023 219.564C287.331 218.29 107.697 209.568 81.129 183.017Z" fill="#808080"/>
<path d="M319.024 219.561C310.007 219.341 292.491 220.096 290.493 232.113C290.278 233.526 290.442 234.951 290.542 236.36C290.734 239.543 289.914 242.824 287.801 245.25C281.241 252.112 270.597 251.969 261.758 251.651C235.169 249.597 208.771 245.285 182.657 239.909C153.604 233.727 124.085 227.227 97.5281 213.445C88.0076 208.353 78.5627 202.503 71.1351 194.566C65.8457 188.567 65.188 178.767 71.4915 173.225C67.8024 176.288 65.9572 181.287 66.6906 186.028C68.3019 196.761 80.7423 203.705 89.0066 209.361C107.863 220.858 129.034 227.95 150.296 233.467C186.89 242.588 224.058 249.822 261.677 252.907C271.848 253.392 287.091 253.162 291.204 241.777C292.361 238.685 291.537 235.457 291.808 232.293C293.443 221.551 311.154 220.494 319.026 220.414V219.561H319.024Z" fill="#636363"/>
<path d="M98.6537 204.74C106.471 208.222 115.573 211.362 125.464 214.196C125.998 213.381 126.929 211.838 127.207 211.477C117.616 209.07 108.78 206.372 101.153 203.354C100.321 203.818 99.4889 204.28 98.6537 204.74Z" fill="white"/>
<path d="M74.4499 183.594C74.2669 183.62 73.4688 183.871 73.1317 183.997C73.5514 185.892 74.699 188.021 76.1121 189.75C76.3281 190.005 76.5524 190.258 76.7822 190.511C77.2597 190.177 77.7372 189.841 78.216 189.507C76.7189 187.869 75.2383 185.788 74.4499 183.594Z" fill="white"/>
<path d="M85.9959 165.793C87.1545 164.892 88.3654 163.976 89.6575 162.975C89.5088 162.926 89.3589 162.877 89.2089 162.831C87.9402 163.674 86.6096 164.569 85.2804 165.505C85.5184 165.603 85.7565 165.698 85.9959 165.793Z" fill="white"/>
<path d="M83.709 167.252C82.0812 168.418 80.474 169.639 79.0017 170.895C79.3237 171.101 79.6635 171.283 80.002 171.455C81.4399 170.035 82.9081 168.799 84.4685 167.565C84.2153 167.462 83.9608 167.358 83.709 167.252Z" fill="white"/>
<path d="M78.2146 173.564C77.8293 173.352 77.4468 173.121 77.0918 172.862C74.0756 175.749 72.5758 178.345 72.851 181.593C73.2431 181.593 74.0563 181.546 74.4581 181.483C74.3921 177.966 76.6198 175.321 78.2146 173.564Z" fill="white"/>
<path d="M80.8455 194.329C83.7516 196.705 87.2343 198.959 91.1986 201.097C91.9168 200.713 92.6323 200.325 93.3479 199.937C89.0795 197.859 85.3739 195.643 82.3467 193.283C81.8459 193.632 81.3464 193.98 80.8455 194.329Z" fill="white"/>
<path d="M141.617 214.774C140.513 215.718 139.411 216.662 138.307 217.605C150.507 220.617 163.491 223.232 176.475 225.502C177.695 224.704 180.619 222.215 181.516 221.561C167.982 219.684 154.386 217.443 141.617 214.774Z" fill="white"/>
<path d="M268.148 230.197C255.459 229.312 226.955 226.864 209.74 225.013C207.593 226.598 205.444 228.179 203.294 229.761C219.489 232.1 247.28 235.09 259.975 236.536C262.678 234.397 265.408 232.29 268.148 230.197Z" fill="white"/>
<path d="M81.7165 130.029C84.4462 130.029 86.6591 129.319 86.6591 128.442C86.6591 127.566 84.4462 126.855 81.7165 126.855C78.9868 126.855 76.7739 127.566 76.7739 128.442C76.7739 129.319 78.9868 130.029 81.7165 130.029Z" fill="#222222"/>
<path d="M83.4943 128.306C83.4943 128.652 82.6192 128.934 81.539 128.934C80.4589 128.934 79.5837 128.652 79.5837 128.306C79.5837 127.959 80.4589 127.678 81.539 127.678C82.6192 127.678 83.4943 127.958 83.4943 128.306Z" fill="white"/>
<path d="M81.5377 99.7217C75.9084 99.7217 71.3429 104.301 71.3429 109.946C71.3429 115.594 81.5377 125.921 81.5377 125.921C81.5377 125.921 91.7352 115.594 91.7352 109.946C91.7352 104.302 87.1696 99.7217 81.5377 99.7217ZM81.5377 115.694C78.3605 115.694 75.786 113.112 75.786 109.925C75.786 106.739 78.3605 104.157 81.5377 104.157C84.7148 104.157 87.2921 106.739 87.2921 109.925C87.2921 113.112 84.7135 115.694 81.5377 115.694Z" fill="#FF3305"/>
<path d="M158.618 87.3679C158.625 87.2769 158.631 87.1858 158.631 87.0933C158.631 85.1572 157.066 83.5881 155.136 83.5881C153.205 83.5881 151.641 85.1572 151.641 87.0933C151.641 87.1858 151.645 87.2769 151.653 87.3679H158.618Z" fill="white"/>
<path d="M170.101 87.3679C170.108 87.2769 170.114 87.1858 170.114 87.0933C170.114 85.1572 168.549 83.5881 166.619 83.5881C164.688 83.5881 163.123 85.1572 163.123 87.0933C163.123 87.1858 163.128 87.2769 163.134 87.3679H170.101Z" fill="white"/>
<path d="M173.075 87.3681C173.084 87.2784 173.09 87.1859 173.09 87.0935C173.09 85.7245 171.983 84.615 170.619 84.615C169.254 84.615 168.147 85.7245 168.147 87.0935C168.147 87.1859 168.153 87.2784 168.162 87.3681H173.075Z" fill="white"/>
<path d="M166.081 87.368C166.108 87.1541 166.122 86.9361 166.122 86.7153C166.122 83.8794 163.829 81.5803 161.002 81.5803C158.174 81.5803 155.882 83.8794 155.882 86.7153C155.882 86.9361 155.895 87.1541 155.923 87.368H166.081Z" fill="white"/>
<path d="M197.182 74.545C197.193 74.3973 197.201 74.2483 197.201 74.0965C197.201 70.939 194.649 68.3792 191.501 68.3792C188.352 68.3792 185.8 70.939 185.8 74.0965C185.8 74.2469 185.808 74.3959 185.819 74.545H197.182Z" fill="white"/>
<path d="M215.912 74.545C215.923 74.3973 215.932 74.2483 215.932 74.0965C215.932 70.939 213.379 68.3792 210.231 68.3792C207.082 68.3792 204.53 70.939 204.53 74.0965C204.53 74.2469 204.538 74.3959 204.549 74.545H215.912Z" fill="white"/>
<path d="M220.761 74.5451C220.778 74.3975 220.786 74.2484 220.786 74.0966C220.786 71.8638 218.981 70.0532 216.754 70.0532C214.528 70.0532 212.723 71.8638 212.723 74.0966C212.723 74.2484 212.732 74.3975 212.747 74.5451H220.761Z" fill="white"/>
<path d="M209.354 74.5451C209.398 74.1959 209.422 73.8399 209.422 73.4797C209.422 68.854 205.683 65.1045 201.071 65.1045C196.458 65.1045 192.72 68.854 192.72 73.4797C192.72 73.8413 192.743 74.1959 192.787 74.5451H209.354Z" fill="white"/>
<path opacity="0.5" d="M159.806 180.144C135.097 178.4 111.51 174.177 93.2213 161.433L92.5016 162.693C110.885 179.104 129.014 189.19 153.765 192.681C154.141 191.116 157.324 183.684 159.806 180.144Z" fill="url(#paint0_linear_377_240)"/>
<path opacity="0.6" d="M163.236 210.223L261.568 220.288C273.796 222.524 263.826 233.823 240.351 232.239C240.351 232.239 182.946 225.26 153.106 220.639C142.322 218.968 145.094 207.918 163.236 210.223Z" fill="#222222"/>
<path d="M182.848 164.836L150.94 162.008L151.485 128.64L183.393 131.467L182.848 164.836Z" fill="#DE7F04"/>
<path d="M150.302 127.394L150.188 134.405L184.29 137.428L184.41 130.074L150.302 127.394Z" fill="#DE7F04"/>
<path d="M166.708 163.672L140.274 161.322L140.82 127.952L167.254 130.304L166.708 163.672Z" fill="#FFA305"/>
<path d="M139.846 126.573L139.729 133.736L167.981 136.249L168.098 128.792L139.846 126.573Z" fill="#FFA305"/>
<path d="M140.736 133.649L140.708 133.973L173.815 136.917L173.844 136.592L140.736 133.649Z" fill="#DE7F04"/>
<path d="M145.996 161.83L144.016 161.655L144.587 126.934L146.566 127.111L145.996 161.83Z" fill="white"/>
<path d="M162.565 163.321L160.585 163.144L161.153 128.273L163.133 128.449L162.565 163.321Z" fill="white"/>
<path d="M191.931 206.331C194.402 198.72 190.644 190.669 183.538 188.348C176.431 186.028 168.668 190.317 166.197 197.928C163.726 205.539 167.484 213.59 174.59 215.911C181.696 218.231 189.46 213.942 191.931 206.331Z" fill="#222222"/>
<path d="M196.054 203.208C195.283 211.534 188.623 217.873 179.904 217.326C171.184 216.778 164.739 209.585 165.509 201.261C166.28 192.935 173.973 186.632 182.693 187.178C191.414 187.726 196.824 194.883 196.054 203.208Z" fill="#222222"/>
<path d="M188.162 205.101C189.909 199.719 187.252 194.026 182.228 192.385C177.203 190.745 171.714 193.777 169.966 199.159C168.219 204.541 170.876 210.234 175.9 211.875C180.925 213.515 186.414 210.483 188.162 205.101Z" fill="#CCCCCC"/>
<path d="M182.928 203.462C183.743 200.953 182.504 198.299 180.161 197.534C177.819 196.769 175.259 198.183 174.445 200.692C173.63 203.201 174.869 205.855 177.212 206.62C179.554 207.385 182.114 205.971 182.928 203.462Z" fill="#737373"/>
<path d="M217.782 199.519C215.33 199.74 188.474 199.37 217.806 169.376C184.549 166.347 168.528 160.02 155 198.853L215.118 203.837C217.99 204.018 218.579 200.567 217.782 199.519Z" fill="#0C2461"/>
<path d="M222.624 169.663L189.819 166.975C186.28 166.681 186.919 159.114 190.458 159.408L223.263 162.096C227.496 162.447 226.857 170.014 222.624 169.663Z" fill="#222222"/>
<path d="M183.333 167.55L155.2 165.323C154.413 165.261 153.83 164.571 153.897 163.784C153.965 162.996 154.658 162.408 155.445 162.471L183.578 164.698C184.365 164.76 184.948 165.45 184.881 166.237C184.813 167.025 184.12 167.612 183.333 167.55Z" fill="#222222"/>
<path d="M158.532 163.653L157.316 164.594L167.597 177.965L168.813 177.025L158.532 163.653Z" fill="#222222"/>
<path d="M211.899 169.14C211.899 169.14 183.807 198.619 211.915 200.028C217.488 200.177 217.784 199.519 217.784 199.519C209.726 198.134 202.101 195.069 208.626 184.617C214.026 175.967 223.135 169.594 223.135 169.594L211.899 169.14Z" fill="#B81F20"/>
<path d="M196.244 202.228C196.687 201.294 197.076 200.335 197.401 199.351C200.988 188.519 195.516 180.288 185.661 178.227C163.445 173.584 157.009 198.004 156.826 198.959L196.244 202.228Z" fill="#B81F20"/>
<path d="M191.082 201.799C191.525 200.865 191.915 199.906 192.24 198.922C195.827 188.09 190.571 178.633 180.5 177.798C170.427 176.963 159.355 185.067 155.767 195.897C155.441 196.881 155.191 197.852 155.008 198.807L191.082 201.799Z" fill="#0C2461"/>
<path d="M183.1 187.885L170.052 187.085C169.797 187.07 169.607 186.851 169.631 186.598L169.635 186.554C169.658 186.302 169.885 186.108 170.14 186.124L183.188 186.923C183.443 186.938 183.633 187.157 183.609 187.41L183.605 187.454C183.582 187.707 183.355 187.9 183.1 187.885Z" fill="#222222"/>
<path d="M182.901 190.071L169.852 189.272C169.598 189.256 169.408 189.037 169.431 188.784L169.435 188.74C169.459 188.488 169.686 188.294 169.94 188.31L182.989 189.109C183.243 189.124 183.433 189.343 183.41 189.596L183.406 189.64C183.382 189.893 183.155 190.086 182.901 190.071Z" fill="#222222"/>
<path d="M182.703 192.256L169.654 191.457C169.399 191.442 169.21 191.223 169.233 190.97L169.237 190.926C169.26 190.673 169.487 190.48 169.742 190.495L182.791 191.294C183.045 191.31 183.235 191.529 183.212 191.782L183.208 191.826C183.184 192.078 182.957 192.273 182.703 192.256Z" fill="#222222"/>
<path d="M182.503 194.444L169.454 193.645C169.2 193.629 169.01 193.41 169.033 193.157L169.038 193.113C169.061 192.861 169.288 192.668 169.543 192.683L182.591 193.482C182.846 193.497 183.036 193.716 183.012 193.969L183.008 194.013C182.985 194.266 182.758 194.459 182.503 194.444Z" fill="#222222"/>
<path d="M230.397 126.007C230.397 126.007 226.466 139.971 228.043 145.356C231.274 150.774 255.709 150.255 255.709 150.255L257.501 146.284L241.372 141.394L243 131.59C244.625 122.766 234.682 119.737 230.397 126.007Z" fill="#32613F"/>
<path d="M214.173 199.246L224.128 200.091C226.755 196.587 244.598 172.535 245.064 166.953C245.455 162.275 243.64 157.712 231.998 152.805C224.192 149.515 215.191 151.142 215.191 151.142C215.191 151.142 208.61 158.085 214.079 162.201C219.549 166.318 229.941 168.747 229.941 168.747L214.173 199.246Z" fill="#024545"/>
<path d="M214.132 199.322L234.285 200.89C234.285 200.89 240.401 198.409 236.155 193.098C232.833 189.975 226.146 191.544 223.645 194.986L216.723 194.549L214.132 199.322Z" fill="#222222"/>
<path d="M203.08 198.551L213.035 199.395C215.662 195.891 233.504 171.839 233.971 166.257C234.362 161.579 232.547 157.017 220.904 152.109C213.098 148.82 207.563 149.65 204.838 150.286C202.114 150.923 197.517 157.391 202.986 161.507C208.456 165.624 218.847 168.053 218.847 168.053L203.08 198.551Z" fill="#027273"/>
<path d="M203.038 198.627L223.191 200.194C223.191 200.194 229.308 197.713 225.061 192.403C221.74 189.28 215.052 190.849 212.552 194.291L205.629 193.853C202.242 195.505 202.924 197.059 203.038 198.627Z" fill="#222222"/>
<path d="M230.144 152.867C235.092 150.816 238.378 140.178 241.577 133.606C247.3 121.874 229.206 113.494 219.53 123.841C210.609 132.864 201.206 141.499 202.377 151.9C210.802 156.005 226.373 154.799 230.144 152.867Z" fill="#56A66B"/>
<path d="M226.532 154.074L226.374 153.79C228.067 152.841 228.709 150.778 229.455 148.389C230.15 146.162 230.935 143.638 232.774 141.654C237.529 134.897 238.901 130.051 239.216 127.176C239.556 124.068 238.765 122.535 238.758 122.519L239.044 122.366C239.079 122.431 239.885 123.979 239.544 127.173C239.231 130.094 237.848 135.011 233.034 141.852L233.02 141.868C231.227 143.799 230.451 146.289 229.766 148.485C228.998 150.942 228.338 153.062 226.532 154.074Z" fill="#386B45"/>
<path d="M219.732 124.919C219.732 124.919 206.195 138.061 210.368 145.367C213.726 151.245 234.568 152.49 235.97 150.9L237.762 146.93C236.248 143.337 228.519 141.896 222.399 140.488L229.371 134.098C235.439 128.193 227.351 118.163 219.732 124.919Z" fill="#417D51"/>
<path d="M239.718 126.219C239.718 126.219 240.867 126.916 240.709 128.629C243.08 126.723 240.713 120.451 234.685 118.258C228.966 116.178 239.718 126.219 239.718 126.219Z" fill="#417D51"/>
<path d="M232.987 119.493C231.237 121.371 239.719 126.219 239.719 126.219L245.679 118.148L238.754 113.595L232.987 119.493Z" fill="#FFA794"/>
<path d="M236.519 111.199C236.519 111.199 238.376 123.441 248.419 122.406C252.914 121.943 254.888 115.255 254.857 111.345C254.793 102.749 247.355 98.5143 242.864 100.419C235.417 103.577 236.485 110.043 236.519 111.199Z" fill="#FFA794"/>
<path d="M237.96 115.851C237.96 115.851 239.899 121.393 244.803 122.42C246.78 122.697 247.293 122.468 247.293 122.468C246.475 122.442 241.048 120.775 240.188 114.707C239.882 113.538 237.568 114.419 237.96 115.851Z" fill="#222222"/>
<path d="M240.894 115.356C241.99 113.494 242.556 110.992 243.194 108.373C246.469 108.809 250.798 109.273 255.452 109.219C256.773 109.226 257.47 99.6585 246.809 98.1764C242.506 97.5775 237.141 99.0375 234.869 103.277C232.422 107.843 233.037 113.01 235.213 115.32C236.602 116.794 239.402 117.109 240.894 115.356Z" fill="#0C2461"/>
<path d="M252.473 109.113L251.875 109.234C252.888 105.369 250.486 102.392 248.91 101.116C246.208 98.9227 242.363 97.8615 240.515 98.7985L240.279 98.328C242.325 97.2916 246.347 98.3583 249.242 100.706C250.915 102.064 253.56 104.96 252.473 109.113Z" fill="white"/>
<path d="M253.538 109.474L253.033 109.325C253.845 106.558 253.158 103.818 251.101 101.607C248.752 99.0843 245.133 97.8409 242.096 98.513L241.983 97.9982C245.196 97.2862 249.013 98.5916 251.485 101.247C253.675 103.6 254.403 106.521 253.538 109.474Z" fill="white"/>
<path d="M249.992 114.992C249.528 114.998 249.156 114.925 249.126 114.918C249.031 114.899 248.969 114.807 248.989 114.711C249.008 114.616 249.099 114.554 249.195 114.573C249.209 114.576 250.538 114.836 251.214 114.302C251.27 114.257 251.298 114.198 251.303 114.115C251.336 113.511 250.205 112.256 249.766 111.824C249.697 111.757 249.696 111.645 249.763 111.576C249.831 111.507 249.942 111.506 250.011 111.573C250.184 111.744 251.699 113.264 251.651 114.135C251.642 114.318 251.564 114.471 251.428 114.578C251.026 114.898 250.462 114.985 249.992 114.992Z" fill="#B3523D"/>
<path d="M245.857 111.084C245.813 111.565 245.487 111.936 245.13 111.914C244.774 111.892 244.521 111.484 244.565 111.002C244.609 110.52 244.935 110.149 245.291 110.171C245.648 110.193 245.901 110.602 245.857 111.084Z" fill="#222222"/>
<path d="M253.491 111.679C253.452 112.091 253.174 112.408 252.87 112.389C252.565 112.369 252.349 112.02 252.387 111.609C252.426 111.198 252.704 110.88 253.008 110.9C253.312 110.919 253.528 111.268 253.491 111.679Z" fill="#222222"/>
<path d="M245.096 115.686C245.096 115.686 247.053 118.09 251.493 117.789C251.493 117.789 248.976 121.226 245.989 119.801C243.003 118.377 245.096 115.686 245.096 115.686Z" fill="#B33A20"/>
<path d="M243.194 108.373C248.115 108.885 252.855 109.336 255.698 109.158C255.698 109.158 258.96 110.162 258.098 110.831C257.236 111.502 243.194 108.373 243.194 108.373Z" fill="#222222"/>
<path d="M234.684 118.258C234.684 118.258 232.855 117.402 231.976 119.235C232.212 123.826 235.696 128.173 237.491 128.604C237.781 127.861 238.404 126.947 239.716 126.219C239.719 126.219 234.696 122.043 234.684 118.258Z" fill="#417D51"/>
<path d="M268.467 213.658C270.787 206.512 267.259 198.953 260.587 196.775C253.915 194.596 246.625 198.623 244.306 205.769C241.986 212.914 245.514 220.473 252.186 222.652C258.858 224.831 266.147 220.804 268.467 213.658Z" fill="#222222"/>
<path d="M272.339 210.729C271.616 218.545 265.363 224.499 257.176 223.984C248.989 223.469 242.938 216.717 243.661 208.901C244.385 201.084 251.607 195.165 259.794 195.679C267.983 196.193 273.063 202.913 272.339 210.729Z" fill="#222222"/>
<path d="M264.928 212.502C266.568 207.449 264.073 202.104 259.356 200.564C254.639 199.023 249.485 201.871 247.845 206.924C246.204 211.976 248.699 217.321 253.416 218.862C258.133 220.402 263.287 217.555 264.928 212.502Z" fill="#CCCCCC"/>
<path d="M260.016 210.964C260.78 208.608 259.617 206.115 257.418 205.397C255.218 204.679 252.815 206.006 252.05 208.363C251.285 210.719 252.448 213.211 254.648 213.929C256.847 214.647 259.251 213.32 260.016 210.964Z" fill="#737373"/>
<path d="M262.941 199.281C260.368 202.544 256.884 204.973 252.852 205.987C252.607 206.048 252.361 206.106 252.114 206.156C251.716 206.239 251.317 206.306 250.914 206.357C250.01 206.477 249.095 206.526 248.181 206.502C247.834 206.494 247.487 206.475 247.142 206.447L246.881 206.425L230.952 205.104C230.951 205.104 230.951 205.104 230.951 205.104L215.757 204.049C208.611 203.6 209.453 200.87 216.284 199.918C237.56 200.007 247.081 177.332 241.701 165.417C239.866 161.059 244.727 157.716 249.397 157.004C250.007 156.911 250.614 156.862 251.201 156.864C251.607 156.862 252.003 156.886 252.386 156.934C252.506 156.951 252.624 156.966 252.741 156.986C253.333 157.065 253.911 157.189 254.466 157.366C256.14 157.899 257.601 158.895 258.57 160.45L265.772 176.774C269.275 184.709 267.606 193.365 262.941 199.281Z" fill="#0C2461"/>
<path d="M261.585 189.825C261.524 190.225 261.452 190.62 261.37 191.007L263.346 191.093C263.393 190.836 263.437 190.584 263.474 190.335C264.357 184.423 262.733 179.606 262.663 179.404L254.468 157.367C253.912 157.191 252.577 157.013 252.173 157.014L260.897 180.22C260.982 180.475 262.348 184.717 261.585 189.825Z" fill="white"/>
<path d="M261.857 142.684V142.685C261.646 142.659 261.43 142.652 261.212 142.668C260.843 142.692 260.478 142.774 260.12 142.908C257.462 143.897 255.238 147.751 254.929 152.221C254.716 155.27 255.442 157.911 256.733 159.487C257.143 159.988 257.609 160.38 258.122 160.645L254.662 159.436L254.367 159.332C251.981 158.39 250.407 155.065 250.669 151.011C250.976 146.275 253.675 142.267 256.785 141.819C257.348 141.837 257.931 141.884 258.533 141.962C259.587 142.099 260.694 142.334 261.857 142.684Z" fill="#FF6162"/>
<path d="M254.367 159.332L244.178 155.776C244.178 155.776 240.614 154.153 242.649 149.286C242.649 149.286 247.238 141.512 256.786 141.82C253.677 142.269 250.978 146.276 250.67 151.012C250.406 155.067 251.981 158.391 254.367 159.332Z" fill="#0C2461"/>
<path d="M261.857 142.685C261.772 143.112 261.634 143.824 261.462 144.728C260.789 148.279 259.593 154.767 258.944 158.306C258.67 159.8 258.491 160.77 258.491 160.77L258.124 160.643C257.611 160.378 257.144 159.986 256.734 159.486C255.442 157.91 254.717 155.268 254.93 152.22C255.241 147.75 257.463 143.897 260.122 142.906C260.478 142.772 260.843 142.69 261.213 142.666C261.43 142.652 261.646 142.659 261.857 142.685Z" fill="#0C2461"/>
<path d="M266.216 151.469C265.864 156.538 263.05 160.815 259.933 161.023C259.288 161.066 258.68 160.93 258.124 160.643C257.611 160.378 257.144 159.987 256.734 159.486C255.442 157.91 254.717 155.268 254.93 152.22C255.241 147.75 257.463 143.897 260.122 142.906C260.478 142.772 260.843 142.69 261.213 142.666C261.432 142.651 261.648 142.658 261.858 142.684C264.631 143.021 266.544 146.756 266.216 151.469Z" fill="#FF6162"/>
<path d="M265.612 151.526C265.319 155.731 262.985 159.28 260.4 159.452C259.865 159.488 259.36 159.375 258.899 159.138C258.473 158.918 258.085 158.593 257.745 158.177C256.674 156.869 256.072 154.679 256.248 152.149C256.506 148.44 258.351 145.244 260.557 144.421C260.852 144.311 261.155 144.242 261.462 144.221C261.644 144.209 261.823 144.214 261.997 144.237C264.297 144.515 265.885 147.615 265.612 151.526Z" fill="white"/>
<path d="M246.509 153.401L234.385 153.672L234.414 148.4L246.534 148.818C248.887 148.764 248.748 153.351 246.509 153.401Z" fill="#222222"/>
<path d="M236.081 151.078C236.117 149.622 235.394 148.423 234.467 148.4C233.539 148.377 232.758 149.539 232.722 150.995C232.686 152.451 233.409 153.65 234.337 153.673C235.265 153.696 236.046 152.534 236.081 151.078Z" fill="#222222"/>
<path d="M265.033 195.262C264.557 196.65 263.822 198 262.941 199.281C260.368 202.543 256.884 204.973 252.854 205.987C252.215 206.149 251.569 206.273 250.916 206.359C249.667 206.524 248.4 206.552 247.145 206.45L246.883 206.428L230.956 205.107C231.113 205.097 240.946 205.935 248.2 194.564C254.444 185.067 267.636 187.675 265.033 195.262Z" fill="#B81F20"/>
<path d="M277.177 208.427C277.289 208.329 277.356 208.223 277.373 208.107C278.723 198.584 267.471 188.408 258.714 189.41C251.062 191.431 246.305 198.228 245.279 206.295L277.177 208.427Z" fill="#0C2461"/>
<path d="M235.648 148.128C235.648 148.128 237.401 145.548 241.432 146.965C245.462 148.382 244.09 152.909 243.007 153.481C241.924 154.054 238.172 154.577 238.72 153.576C239.267 152.577 239.842 150.909 238.923 149.532C238.294 148.589 235.619 148.442 235.619 148.442L235.648 148.128Z" fill="#FFA794"/>
<path d="M184.793 166.282L183.183 166.097L184.153 157.585L177.35 157.159L176.401 165.493L174.791 165.308L175.828 156.207C175.878 155.778 176.253 155.463 176.684 155.488L185.108 156.016C185.329 156.03 185.536 156.135 185.679 156.306C185.822 156.477 185.888 156.699 185.863 156.92L184.793 166.282Z" fill="#222222"/>
<path opacity="0.8" d="M165.732 199.748L196.244 202.228L195.038 207.614L165.458 203.194L165.732 199.748Z" fill="#222222"/>
<path opacity="0.8" d="M244.148 206.2L272.394 208.126C272.469 210.118 272.298 211.964 271.801 213.615L243.595 209.667C243.677 208.412 243.837 207.232 244.148 206.2Z" fill="#222222"/>
<path d="M169.38 118.071C172.735 114.706 172.735 109.25 169.38 105.885C166.025 102.52 160.585 102.52 157.23 105.885C153.875 109.25 153.875 114.706 157.23 118.071C160.585 121.436 166.025 121.436 169.38 118.071Z" fill="#56A66B"/>
<path d="M162.843 116.028L158.84 109.754L159.511 109.042L162.829 112.19L172.859 103.23L173.511 104.063L162.843 116.028Z" fill="white"/>
<path opacity="0.5" d="M261.461 144.223L305.844 142.198L301.293 170.389L259.803 159.465L261.461 144.223Z" fill="url(#paint1_linear_377_240)"/>
<path d="M129.768 115.226H99.976C98.6826 115.226 97.6355 114.175 97.6355 112.879V95.437C97.6355 94.1398 98.684 93.0896 99.976 93.0896H129.768C131.061 93.0896 132.108 94.1412 132.108 95.437V112.879C132.108 114.175 131.06 115.226 129.768 115.226Z" fill="white"/>
<path d="M104.21 109.151L104.542 110.174H105.614L104.747 110.806L105.078 111.829L104.21 111.197L103.343 111.829L103.675 110.806L102.806 110.174H103.88L104.21 109.151Z" fill="#FDF280"/>
<path d="M109.481 109.151L109.812 110.174H110.885L110.017 110.806L110.348 111.829L109.481 111.197L108.613 111.829L108.945 110.806L108.078 110.174H109.15L109.481 109.151Z" fill="#FDF280"/>
<path d="M114.752 109.151L115.083 110.174H116.155L115.288 110.806L115.618 111.829L114.752 111.197L113.885 111.829L114.215 110.806L113.348 110.174H114.42L114.752 109.151Z" fill="#FDF280"/>
<path d="M120.022 109.151L120.353 110.174H121.425L120.558 110.806L120.89 111.829L120.022 111.197L119.155 111.829L119.486 110.806L118.619 110.174H119.691L120.022 109.151Z" fill="#FDF280"/>
<path d="M125.293 109.151L125.625 110.174H126.697L125.828 110.806L126.16 111.829L125.293 111.197L124.425 111.829L124.756 110.806L123.89 110.174H124.961L125.293 109.151Z" fill="#FDF280"/>
<path d="M126.093 98.5793H118.662C118.328 98.5793 118.058 98.3075 118.058 97.9735C118.058 97.6382 118.329 97.3677 118.662 97.3677H126.093C126.427 97.3677 126.697 97.6395 126.697 97.9735C126.697 98.3088 126.426 98.5793 126.093 98.5793Z" fill="#94F3F7"/>
<path d="M126.093 101.229H116.458C116.123 101.229 115.854 100.957 115.854 100.623C115.854 100.288 116.125 100.017 116.458 100.017H126.093C126.427 100.017 126.697 100.289 126.697 100.623C126.697 100.958 126.426 101.229 126.093 101.229Z" fill="#94F3F7"/>
<path d="M126.093 103.878H116.458C116.123 103.878 115.854 103.607 115.854 103.273C115.854 102.937 116.125 102.667 116.458 102.667H126.093C126.427 102.667 126.697 102.939 126.697 103.273C126.697 103.608 126.426 103.878 126.093 103.878Z" fill="#94F3F7"/>
<path d="M126.093 106.528H116.458C116.123 106.528 115.854 106.256 115.854 105.922C115.854 105.587 116.125 105.316 116.458 105.316H126.093C126.427 105.316 126.697 105.588 126.697 105.922C126.697 106.256 126.426 106.528 126.093 106.528Z" fill="#94F3F7"/>
<path d="M112.916 96.9316H101.984V106.796H112.916V96.9316Z" fill="#94F3F7"/>
<defs>
<linearGradient id="paint0_linear_377_240" x1="154.629" y1="183.02" x2="63.8635" y2="165.935" gradientUnits="userSpaceOnUse">
<stop stop-color="white"/>
<stop offset="1"/>
</linearGradient>
<linearGradient id="paint1_linear_377_240" x1="261.765" y1="157.597" x2="306.859" y2="156.2" gradientUnits="userSpaceOnUse">
<stop stop-color="white"/>
<stop offset="1"/>
</linearGradient>
</defs>
</svg>
