<svg width="342" height="342" viewBox="0 0 342 342" fill="none" xmlns="http://www.w3.org/2000/svg">
<path d="M196.787 251.664H141.629C136.007 251.664 131.451 247.108 131.451 241.486V99.2961C131.451 93.6736 136.007 89.1182 141.629 89.1182H196.787C202.409 89.1182 206.965 93.6736 206.965 99.2961V241.486C206.965 247.108 202.409 251.664 196.787 251.664Z" fill="#2C5973"/>
<path d="M175.891 95.2467H162.525C162.129 95.2467 161.807 94.9252 161.807 94.5285C161.807 94.1318 162.129 93.8103 162.525 93.8103H175.891C176.287 93.8103 176.609 94.1318 176.609 94.5285C176.609 94.9252 176.287 95.2467 175.891 95.2467Z" fill="#2C5973"/>
<path d="M191.712 94.5354C191.712 94.9663 191.363 95.322 190.925 95.322C190.494 95.322 190.138 94.9731 190.138 94.5354C190.138 94.1045 190.487 93.7488 190.925 93.7488C191.356 93.7488 191.712 94.0976 191.712 94.5354Z" fill="#2C5973"/>
<path d="M184.488 94.5354C184.488 94.9663 184.14 95.322 183.702 95.322C183.264 95.322 182.915 94.9731 182.915 94.5354C182.915 94.1045 183.264 93.7488 183.702 93.7488C184.14 93.7488 184.488 94.0976 184.488 94.5354Z" fill="#2C5973"/>
<path d="M147.532 94.5354C147.532 94.9663 147.183 95.322 146.745 95.322C146.314 95.322 145.959 94.9731 145.959 94.5354C145.959 94.1045 146.308 93.7488 146.745 93.7488C147.176 93.7488 147.532 94.0976 147.532 94.5354Z" fill="#2C5973"/>
<path d="M204.974 98.9883H133.681V242.211H204.974V98.9883Z" fill="white"/>
<path d="M197.17 202.067H139.529V204.523H197.17V202.067Z" fill="#8DD5DD"/>
<path d="M197.17 210.897H139.529V213.353H197.17V210.897Z" fill="#8DD5DD"/>
<path d="M197.17 219.728H139.529V222.184H197.17V219.728Z" fill="#8DD5DD"/>
<path d="M197.17 228.558H139.529V231.014H197.17V228.558Z" fill="#8DD5DD"/>
<path d="M194.961 196.185H143.455V174.974H194.961V196.185Z" fill="#FB611F"/>
<path d="M159.039 193.638V181.455H163.298C164.147 181.455 164.847 181.602 165.398 181.896C165.949 182.185 166.36 182.576 166.629 183.067C166.899 183.555 167.034 184.097 167.034 184.691C167.034 185.215 166.941 185.647 166.754 185.988C166.572 186.329 166.33 186.599 166.029 186.797C165.731 186.995 165.408 187.142 165.059 187.237V187.356C165.432 187.38 165.806 187.511 166.183 187.749C166.56 187.987 166.875 188.328 167.129 188.772C167.383 189.216 167.51 189.76 167.51 190.402C167.51 191.013 167.371 191.562 167.093 192.05C166.816 192.537 166.377 192.924 165.779 193.21C165.18 193.495 164.401 193.638 163.441 193.638H159.039ZM160.514 192.329H163.441C164.405 192.329 165.089 192.143 165.493 191.77C165.902 191.393 166.106 190.937 166.106 190.402C166.106 189.99 166.001 189.609 165.791 189.26C165.58 188.907 165.281 188.625 164.892 188.415C164.504 188.201 164.044 188.094 163.512 188.094H160.514V192.329ZM160.514 186.809H163.251C163.695 186.809 164.095 186.722 164.452 186.547C164.813 186.373 165.099 186.127 165.309 185.81C165.523 185.492 165.63 185.12 165.63 184.691C165.63 184.156 165.444 183.702 165.071 183.329C164.698 182.952 164.107 182.764 163.298 182.764H160.514V186.809ZM177.928 181.455H179.404V189.522C179.404 190.354 179.207 191.098 178.815 191.752C178.426 192.403 177.877 192.916 177.167 193.293C176.457 193.666 175.624 193.852 174.669 193.852C173.713 193.852 172.88 193.666 172.17 193.293C171.46 192.916 170.909 192.403 170.517 191.752C170.128 191.098 169.934 190.354 169.934 189.522V181.455H171.409V189.403C171.409 189.997 171.54 190.527 171.802 190.991C172.063 191.451 172.436 191.814 172.92 192.079C173.408 192.341 173.991 192.472 174.669 192.472C175.347 192.472 175.93 192.341 176.418 192.079C176.905 191.814 177.278 191.451 177.536 190.991C177.798 190.527 177.928 189.997 177.928 189.403V181.455ZM157.992 201.455H159.681L163.06 207.142H163.203L166.582 201.455H168.271L163.869 208.617V213.638H162.394V208.617L157.992 201.455Z" fill="white"/>
<path opacity="0.86" d="M194.961 196.185H168.866V174.974H194.961V196.185Z" fill="#EAE4D9"/>
<path d="M197.204 169.666H141.766C140.412 169.666 139.317 168.572 139.317 167.217V134.03C139.317 132.675 140.412 131.581 141.766 131.581H197.204C198.558 131.581 199.653 132.675 199.653 134.03V167.217C199.653 168.565 198.558 169.666 197.204 169.666Z" fill="#FFF9E7" stroke="#6DCAD3" stroke-width="2.008" stroke-miterlimit="10"/>
<path d="M181.985 146.212H157.005V165.227H181.985V146.212Z" fill="#8DD5DD"/>
<path d="M183.182 141.82H155.822V146.43H183.182V141.82Z" fill="#54C1CC"/>
<path d="M180.09 136.485C178.326 136.485 172.984 139.207 171.315 140.083C171.144 139.844 170.87 139.686 170.549 139.686H168.449C168.134 139.686 167.854 139.844 167.683 140.083C166.014 139.207 160.665 136.485 158.907 136.485C156.807 136.485 156.089 137.812 156.089 139.303C156.089 140.794 156.698 141.902 158.907 141.902C160.569 141.902 164.981 141.902 167.067 141.902V165.446H171.93V141.902C174.01 141.902 178.428 141.902 180.09 141.902C182.3 141.902 182.908 140.794 182.908 139.303C182.908 137.812 182.19 136.485 180.09 136.485ZM157.744 139.303C157.744 138.735 158.031 138.161 159.235 138.127C160.473 138.093 166.383 140.288 167.505 140.712V140.781C166.362 140.753 160.316 140.596 159.153 140.596C157.874 140.589 157.744 139.871 157.744 139.303ZM179.844 140.589C178.681 140.589 172.635 140.746 171.492 140.774V140.705C172.621 140.281 178.524 138.086 179.762 138.12C180.973 138.154 181.253 138.729 181.253 139.296C181.253 139.871 181.13 140.589 179.844 140.589Z" fill="#2C5973"/>
<path d="M204.974 98.9883H133.681V116.013H204.974V98.9883Z" fill="#1BACBB"/>
<path d="M198.64 104.693H139.529V111.068H198.64V104.693Z" fill="white"/>
<path d="M206.965 125.24V103.619L205.166 101.759H194.961H184.755H174.55H164.345H154.139H143.934H133.729L131.472 103.961V126.526C132.908 128.318 135.104 129.474 137.566 129.474C141.862 129.474 145.377 125.958 145.377 121.663C145.377 125.958 148.893 129.474 153.189 129.474C157.484 129.474 161 125.958 161 121.663C161 125.958 164.516 129.474 168.811 129.474C173.107 129.474 176.622 125.958 176.622 121.663C176.622 125.958 180.138 129.474 184.434 129.474C188.729 129.474 192.245 125.958 192.245 121.663C192.245 125.958 195.761 129.474 200.056 129.474C203.039 129.467 205.658 127.744 206.965 125.24Z" fill="#C7C3BC"/>
<path d="M129.721 118.086H114.071L133.715 98.9541H143.92L129.721 118.086Z" fill="#FB611F"/>
<path d="M145.371 118.086H129.721L143.92 98.9541H154.133L145.371 118.086Z" fill="white"/>
<path d="M161.02 118.086H145.371L154.133 98.9541H164.338L161.02 118.086Z" fill="#FB611F"/>
<path d="M176.67 118.086H161.02L164.338 98.9541H174.543L176.67 118.086Z" fill="white"/>
<path d="M192.32 118.086H176.67L174.543 98.9541H184.755L192.32 118.086Z" fill="#FB611F"/>
<path d="M207.97 118.086H192.32L184.755 98.9541H194.961L207.97 118.086Z" fill="white"/>
<path d="M223.627 118.086H207.97L194.961 98.9541H205.166L223.627 118.086Z" fill="#FB611F"/>
<path d="M129.721 118.085H114.112V118.852C114.112 123.147 117.627 126.663 121.923 126.663C126.219 126.663 129.734 123.147 129.734 118.852V118.065L129.721 118.085Z" fill="#FB611F"/>
<path d="M145.343 118.085H129.734V118.852C129.734 123.147 133.25 126.663 137.546 126.663C141.841 126.663 145.357 123.147 145.357 118.852V118.065L145.343 118.085Z" fill="white"/>
<path d="M160.966 118.085H145.357V118.852C145.357 123.147 148.873 126.663 153.168 126.663C157.464 126.663 160.979 123.147 160.979 118.852V118.065L160.966 118.085Z" fill="#FB611F"/>
<path d="M176.588 118.085H160.979V118.852C160.979 123.147 164.495 126.663 168.791 126.663C173.086 126.663 176.602 123.147 176.602 118.852V118.065L176.588 118.085Z" fill="white"/>
<path d="M192.211 118.085H176.602V118.852C176.602 123.147 180.118 126.663 184.413 126.663C188.709 126.663 192.225 123.147 192.225 118.852V118.065L192.211 118.085Z" fill="#FB611F"/>
<path d="M207.833 118.085H192.225V118.852C192.225 123.147 195.74 126.663 200.036 126.663C204.331 126.663 207.847 123.147 207.847 118.852V118.065L207.833 118.085Z" fill="white"/>
<path d="M223.456 118.085H207.847V118.852C207.847 123.147 211.363 126.663 215.658 126.663C219.954 126.663 223.47 123.147 223.47 118.852V118.065L223.456 118.085Z" fill="#FB611F"/>
<g opacity="0.86">
<path d="M129.721 118.085H114.112V118.852C114.112 123.147 117.627 126.663 121.923 126.663C126.219 126.663 129.734 123.147 129.734 118.852V118.065L129.721 118.085Z" fill="#EAE4D9"/>
</g>
<g opacity="0.86">
<path d="M160.966 118.085H145.357V118.852C145.357 123.147 148.873 126.663 153.168 126.663C157.464 126.663 160.979 123.147 160.979 118.852V118.065L160.966 118.085Z" fill="#EAE4D9"/>
</g>
<g opacity="0.86">
<path d="M192.211 118.085H176.602V118.852C176.602 123.147 180.118 126.663 184.413 126.663C188.709 126.663 192.225 123.147 192.225 118.852V118.065L192.211 118.085Z" fill="#EAE4D9"/>
</g>
<g opacity="0.86">
<path d="M223.456 118.085H207.847V118.852C207.847 123.147 211.363 126.663 215.658 126.663C219.954 126.663 223.47 123.147 223.47 118.852V118.065L223.456 118.085Z" fill="#EAE4D9"/>
</g>
<g opacity="0.86">
<path d="M145.343 118.085H129.734V118.852C129.734 123.147 133.25 126.663 137.546 126.663C141.841 126.663 145.357 123.147 145.357 118.852V118.065L145.343 118.085Z" fill="#EAE4D9"/>
</g>
<g opacity="0.86">
<path d="M176.588 118.085H160.979V118.852C160.979 123.147 164.495 126.663 168.791 126.663C173.086 126.663 176.602 123.147 176.602 118.852V118.065L176.588 118.085Z" fill="#EAE4D9"/>
</g>
<g opacity="0.86">
<path d="M207.833 118.085H192.225V118.852C192.225 123.147 195.74 126.663 200.036 126.663C204.331 126.663 207.847 123.147 207.847 118.852V118.065L207.833 118.085Z" fill="#EAE4D9"/>
</g>
<path opacity="0.8" d="M92.7729 224.183C95.6837 205.968 83.2767 188.841 65.0612 185.931C46.8456 183.02 29.7193 195.427 26.8085 213.642C23.8977 231.858 36.3046 248.984 54.5202 251.895C72.7358 254.806 89.8621 242.399 92.7729 224.183Z" fill="white"/>
<path d="M66.5395 224.858C73.7019 224.858 79.5082 219.052 79.5082 211.889C79.5082 204.727 73.7019 198.921 66.5395 198.921C59.3771 198.921 53.5709 204.727 53.5709 211.889C53.5709 219.052 59.3771 224.858 66.5395 224.858Z" fill="#2C5973"/>
<path d="M74.043 219.393C69.898 223.538 63.1811 223.538 59.036 219.393C54.891 215.248 54.891 208.531 59.036 204.386C63.1811 200.241 69.898 200.241 74.043 204.386C78.188 208.531 78.188 215.255 74.043 219.393Z" fill="#6BC9D3"/>
<path opacity="0.8" d="M72.1894 205.09C68.9472 202.382 64.125 202.375 60.8828 205.09C60.4861 205.419 60.1304 205.774 59.809 206.151C58.7214 207.423 59.6448 209.393 61.3206 209.393H71.7584C73.4548 209.393 74.344 207.402 73.2359 206.116C72.9212 205.754 72.5724 205.412 72.1894 205.09Z" fill="white"/>
<path d="M59.6599 222.104L56.8498 219.294L54.6589 221.485L57.4689 224.295L59.6599 222.104Z" fill="#2C5973"/>
<path d="M40.055 235.221L43.7281 238.901L56.7583 225.002L53.9471 222.19L40.055 235.221Z" fill="#2C5973"/>
<path d="M53.6256 222.122L56.8336 225.33C57.1619 225.658 57.6886 225.658 58.01 225.33C58.3384 225.002 58.3384 224.475 58.01 224.153L54.8021 220.945C54.4738 220.617 53.9471 220.617 53.6256 220.945C53.2973 221.267 53.2973 221.794 53.6256 222.122Z" fill="#2C5973"/>
<path d="M74.2981 146.606C77.6805 132.528 69.0096 118.373 54.931 114.99C40.8525 111.608 26.6975 120.279 23.3151 134.357C19.9326 148.436 28.6036 162.591 42.6821 165.973C56.7607 169.356 70.9156 160.685 74.2981 146.606Z" fill="white"/>
<path d="M62.8459 136.588C62.2372 129.515 56.2316 123.906 49.036 123.906C41.8882 123.906 35.9032 129.454 35.2397 136.465C33.5502 137.21 32.4216 138.886 32.4216 140.774V143.797C32.4216 145.918 33.8375 147.771 35.8758 148.339C37.0865 148.674 38.2835 147.764 38.2835 146.506V138.065C38.2835 137.251 37.7773 136.581 37.0933 136.307C37.8252 130.377 42.9415 125.74 49.0291 125.74C55.0962 125.74 60.192 130.336 60.9581 136.232C60.1578 136.444 59.5354 137.162 59.5354 138.072V146.513C59.5354 147.587 60.4109 148.407 61.4232 148.414C60.746 152.375 58.2289 155.781 54.5695 157.566C54.0839 157.033 53.1742 156.827 52.2576 157.122L51.7925 157.272C50.6365 157.641 49.9252 158.661 50.2056 159.543C50.486 160.432 51.6557 160.849 52.8116 160.48L53.2768 160.329C54.3643 159.981 55.0552 159.064 54.8978 158.216C58.8445 156.28 61.5463 152.559 62.1893 148.264C64.0908 147.621 65.3904 145.836 65.3904 143.804V140.781C65.4109 138.989 64.3986 137.388 62.8459 136.588Z" fill="#FCD258"/>
<path opacity="0.5" d="M32.9346 140.993V143.592C32.9346 145.391 33.899 146.971 35.3012 147.477V137.108C33.899 137.614 32.9346 139.194 32.9346 140.993Z" fill="#FCD258"/>
<path d="M35.8826 136.239C35.8553 136.246 35.8348 136.253 35.8074 136.266V148.325C35.8348 148.332 35.8553 148.346 35.8826 148.353C37.0933 148.688 38.2903 147.778 38.2903 146.519V138.079C38.2903 136.814 37.0933 135.904 35.8826 136.239Z" fill="#FC9062"/>
<path opacity="0.5" d="M64.9184 143.592V140.993C64.9184 139.194 63.954 137.614 62.5518 137.108V147.477C63.9472 146.971 64.9184 145.391 64.9184 143.592Z" fill="#FCD258"/>
<path d="M61.9636 148.346C61.9909 148.339 62.0114 148.332 62.0388 148.318V136.26C62.0114 136.253 61.9909 136.239 61.9636 136.232C60.7529 135.897 59.5559 136.807 59.5559 138.065V146.506C59.5627 147.771 60.7529 148.681 61.9636 148.346Z" fill="#FC9062"/>
<path d="M148.312 77.5037C158.889 77.5037 167.464 68.9291 167.464 58.3517C167.464 47.7743 158.889 39.1997 148.312 39.1997C137.734 39.1997 129.16 47.7743 129.16 58.3517C129.16 68.9291 137.734 77.5037 148.312 77.5037Z" fill="white"/>
<path d="M157.844 60.7666C159.18 55.1471 155.707 49.5086 150.088 48.1727C144.468 46.8367 138.83 50.3091 137.494 55.9286C136.158 61.548 139.63 67.1865 145.25 68.5225C150.869 69.8585 156.508 66.3861 157.844 60.7666Z" fill="#FBBF10"/>
<path d="M155.273 66.6874C159.882 63.2056 160.795 56.647 157.314 52.0384C153.832 47.4297 147.273 46.5162 142.665 49.9979C138.056 53.4797 137.142 60.0383 140.624 64.647C144.106 69.2556 150.665 70.1692 155.273 66.6874Z" fill="#FDE291"/>
<path d="M154.86 64.241C158.113 60.9876 158.113 55.7126 154.86 52.4592C151.606 49.2057 146.331 49.2057 143.078 52.4592C139.824 55.7126 139.824 60.9876 143.078 64.241C146.331 67.4945 151.606 67.4945 154.86 64.241Z" fill="#FBBF10"/>
<path d="M150.131 57.6128C151.786 58.2284 152.382 58.8508 152.382 60.1504C152.382 61.4979 151.629 62.3256 150.227 62.5649V63.7209C150.227 63.8167 150.165 63.8782 150.07 63.8782H148.476C148.38 63.8782 148.319 63.8167 148.319 63.7209V62.5855C147.901 62.5376 147.464 62.4282 146.903 62.2503L146.116 61.9972C146.007 61.963 145.986 61.9015 146.007 61.8057L146.485 60.4856C146.52 60.3898 146.581 60.3556 146.677 60.3898L147.511 60.6429C148.216 60.855 148.736 60.9302 149.249 60.9302C149.892 60.9302 150.439 60.7729 150.439 60.1436C150.439 59.7879 150.022 59.5143 149.365 59.2612L148.366 58.8782C146.739 58.2694 146.143 57.6743 146.143 56.3816C146.143 55.123 146.903 54.3091 148.189 54.0355V52.8453C148.189 52.7496 148.25 52.688 148.346 52.688H149.926C150.022 52.688 150.083 52.7496 150.083 52.8453V54.0013C150.439 54.0628 150.788 54.1449 151.109 54.2543L151.896 54.5143C152.005 54.5485 152.026 54.61 152.005 54.7058L151.52 56.0396C151.485 56.1353 151.424 56.1695 151.328 56.1353L150.624 55.9233C150.145 55.7797 149.693 55.6702 149.208 55.6702C148.544 55.6702 148.086 55.9575 148.086 56.3816C148.086 56.7988 148.455 56.9903 149.133 57.2366L150.131 57.6128Z" fill="#FDE291"/>
<path d="M127.283 286.344C130.628 273.682 123.075 260.705 110.413 257.36C97.7509 254.015 84.7745 261.568 81.4295 274.231C78.0845 286.893 85.6377 299.869 98.2999 303.214C110.962 306.559 123.938 299.006 127.283 286.344Z" fill="white"/>
<path d="M113.435 289.811H111.403L111.492 294.305L107.668 289.811H94.4262C92.2784 289.811 90.5342 288.066 90.5342 285.919V273.757C90.5342 271.609 92.2784 269.865 94.4262 269.865H113.435C115.582 269.865 117.327 271.609 117.327 273.757V285.919C117.327 288.066 115.582 289.811 113.435 289.811Z" fill="#1BACBB"/>
<g opacity="0.75">
<path d="M112.976 273.08H94.8845V274.742H112.976V273.08Z" fill="white"/>
<path d="M112.976 276.897H94.8845V278.559H112.976V276.897Z" fill="white"/>
<path d="M112.976 280.707H94.8845V282.369H112.976V280.707Z" fill="white"/>
<path d="M112.976 284.523H94.8845V286.186H112.976V284.523Z" fill="white"/>
</g>
<path opacity="0.5" d="M110.477 179.497C119.908 175.514 124.324 164.64 120.341 155.209C116.357 145.778 105.483 141.362 96.0524 145.346C86.6217 149.329 82.2058 160.203 86.1892 169.634C90.1725 179.065 101.047 183.481 110.477 179.497Z" fill="white"/>
<path d="M113.058 170.309H93.4686C93.195 170.309 92.9761 170.09 92.9761 169.816V155.028C92.9761 154.755 93.195 154.536 93.4686 154.536H113.058C113.332 154.536 113.551 154.755 113.551 155.028V169.816C113.558 170.09 113.332 170.309 113.058 170.309Z" fill="white"/>
<path opacity="0.5" d="M218.346 84.3096C231.096 84.3096 241.431 73.9741 241.431 61.2246C241.431 48.4752 231.096 38.1396 218.346 38.1396C205.597 38.1396 195.261 48.4752 195.261 61.2246C195.261 73.9741 205.597 84.3096 218.346 84.3096Z" fill="white"/>
<path d="M213.353 69.2959C212.061 69.2959 211.014 70.3424 211.014 71.6352C211.014 72.9279 212.061 73.9745 213.353 73.9745C214.646 73.9745 215.693 72.9279 215.693 71.6352C215.693 70.3424 214.639 69.2959 213.353 69.2959ZM213.353 72.5586C212.84 72.5586 212.423 72.1413 212.423 71.6283C212.423 71.1153 212.84 70.6981 213.353 70.6981C213.866 70.6981 214.284 71.1153 214.284 71.6283C214.277 72.1482 213.859 72.5586 213.353 72.5586Z" fill="white"/>
<path d="M224.359 69.2959C223.066 69.2959 222.02 70.3424 222.02 71.6352C222.02 72.9279 223.066 73.9745 224.359 73.9745C225.652 73.9745 226.698 72.9279 226.698 71.6352C226.705 70.3424 225.652 69.2959 224.359 69.2959ZM224.359 72.5586C223.846 72.5586 223.429 72.1413 223.429 71.6283C223.429 71.1153 223.846 70.6981 224.359 70.6981C224.872 70.6981 225.289 71.1153 225.289 71.6283C225.289 72.1482 224.872 72.5586 224.359 72.5586Z" fill="white"/>
<path d="M230.754 49.72C230.898 49.5969 230.987 49.4259 231 49.2412C231.014 49.0497 230.959 48.8718 230.836 48.7282C230.7 48.5709 230.508 48.4819 230.296 48.4819C230.132 48.4819 229.968 48.5435 229.838 48.6529L226.493 51.5531H206.39C206.171 51.5531 205.966 51.6557 205.829 51.8267C205.692 51.9977 205.651 52.2234 205.706 52.4355L208.88 64.8637C208.962 65.1784 209.242 65.3973 209.564 65.3973H225.973V67.4151H210.686C210.296 67.4151 209.981 67.7297 209.981 68.1196C209.981 68.5095 210.296 68.8241 210.686 68.8241H226.684C227.074 68.8241 227.389 68.5095 227.389 68.1196V63.6462C227.389 63.5299 227.355 63.4205 227.314 63.3931L227.321 52.6612L230.754 49.72ZM225.898 61.4164V63.9677H223.606V61.4164H225.898ZM225.898 57.1893V60.0073H223.606V57.1893H225.898ZM225.898 52.9553V55.7734H223.606V52.9553H225.898ZM222.191 61.4164V63.9677H218.524V61.4164H222.191ZM222.191 57.1893V60.0073H218.524V57.1893H222.191ZM222.191 52.9553V55.7734H218.524V52.9553H222.191ZM217.115 61.4164V63.9677H213.449V61.4164H217.115ZM217.115 57.1893V60.0073H213.449V57.1893H217.115ZM217.115 52.9553V55.7734H213.449V52.9553H217.115ZM212.04 57.1893V60.0073H209.099L208.381 57.1893H212.04ZM212.04 52.9553V55.7734H208.018L207.3 52.9553H212.04ZM212.04 61.4164V63.9677H210.111L209.461 61.4164H212.04Z" fill="white"/>
<path opacity="0.5" d="M293.176 221.965C308.407 221.965 320.755 209.617 320.755 194.386C320.755 179.154 308.407 166.807 293.176 166.807C277.945 166.807 265.597 179.154 265.597 194.386C265.597 209.617 277.945 221.965 293.176 221.965Z" fill="white"/>
<path d="M303.853 189.926C303.108 184.796 298.696 180.849 293.361 180.849C288.073 180.849 283.696 184.721 282.889 189.782C279.359 190.056 276.835 193.011 276.575 196.609C276.233 201.404 279.64 204.83 283.429 204.83C285.543 204.83 299.756 204.83 302.273 204.83C306.439 204.83 309.811 201.458 309.811 197.293C309.804 193.674 307.253 190.658 303.853 189.926Z" fill="#FEFDFE"/>
<path d="M308.567 98.7492C310.856 83.5577 300.397 69.3867 285.205 67.0976C270.014 64.8084 255.843 75.2678 253.554 90.4593C251.264 105.651 261.724 119.822 276.915 122.111C292.107 124.4 306.278 113.941 308.567 98.7492Z" fill="white"/>
<path d="M294.729 87.9211H266.623V109.31H294.729V87.9211Z" fill="#FDDF87"/>
<path d="M296.069 83.0784H265.289V89.9184H296.069V83.0784Z" fill="#FBBF10"/>
<path d="M292.588 76.9771C290.604 76.9771 284.592 80.0414 282.711 81.0263C282.519 80.7596 282.205 80.5817 281.849 80.5817H279.489C279.134 80.5817 278.826 80.7596 278.627 81.0263C276.746 80.0414 270.734 76.9771 268.75 76.9771C266.391 76.9771 265.577 78.4682 265.577 80.1508C265.577 81.8266 266.261 83.0715 268.75 83.0715C270.625 83.0715 275.59 83.0715 277.93 83.0715V109.563H283.402V83.0715C285.748 83.0715 290.707 83.0715 292.581 83.0715C295.071 83.0715 295.755 81.8266 295.755 80.1508C295.762 78.4682 294.954 76.9771 292.588 76.9771ZM267.451 80.1508C267.451 79.5079 267.772 78.8649 269.127 78.8307C270.515 78.7897 277.164 81.2589 278.429 81.7377V81.8129C277.143 81.7787 270.337 81.6077 269.031 81.6077C267.594 81.6009 267.451 80.7869 267.451 80.1508ZM292.314 81.6009C291.008 81.6009 284.202 81.7787 282.916 81.8061V81.7308C284.181 81.252 290.83 78.7896 292.218 78.8238C293.58 78.8649 293.894 79.5078 293.894 80.144C293.894 80.7869 293.757 81.6009 292.314 81.6009Z" fill="#FB611F"/>
<path opacity="0.8" d="M261.363 166.021C270.29 157.094 270.29 142.62 261.363 133.693C252.436 124.766 237.962 124.766 229.035 133.693C220.108 142.62 220.108 157.094 229.035 166.021C237.962 174.948 252.436 174.948 261.363 166.021Z" fill="white"/>
<path d="M255.878 160.596H234.523C232.772 160.596 231.349 159.173 231.349 157.422V143.325C231.349 141.574 232.772 140.151 234.523 140.151H255.878C257.629 140.151 259.051 141.574 259.051 143.325V157.422C259.051 159.173 257.629 160.596 255.878 160.596Z" fill="#1BACBB"/>
<path d="M259.051 143.688H231.349V146.985H259.051V143.688Z" fill="#2C5973"/>
<path d="M259.051 147.402H231.349V150.699H259.051V147.402Z" fill="#FDFCFC"/>
<path d="M252.375 156.061C252.375 157.429 253.484 158.537 254.852 158.537C256.22 158.537 257.328 157.429 257.328 156.061C257.328 154.693 256.22 153.585 254.852 153.585C253.484 153.585 252.375 154.693 252.375 156.061Z" fill="#96D9E0"/>
<path d="M247.758 155.719H232.998V157.785H247.758V155.719Z" fill="#FDFCFC"/>
<path d="M238.189 153.941H232.998V155.343H238.189V153.941Z" fill="#2C5973"/>
<path opacity="0.8" d="M291.757 282.373C301.68 272.45 301.68 256.361 291.757 246.437C281.833 236.514 265.744 236.514 255.821 246.437C245.898 256.361 245.898 272.45 255.821 282.373C265.744 292.296 281.833 292.296 291.757 282.373Z" fill="white"/>
<path d="M285.85 277.8H261.733C259.304 277.8 257.328 275.83 257.328 273.395V255.405C257.328 252.977 259.298 251 261.733 251H285.85C288.279 251 290.255 252.97 290.255 255.405V273.395C290.249 275.83 288.279 277.8 285.85 277.8Z" fill="#FB611F"/>
<path d="M285.85 277.8H261.733C259.304 277.8 257.328 275.83 257.328 273.395V255.405C257.328 252.977 259.298 251 261.733 251H285.85C288.279 251 290.255 252.97 290.255 255.405V273.395C290.249 275.83 288.279 277.8 285.85 277.8Z" fill="#2C5973"/>
<path d="M257.328 255.412V273.401C257.328 273.73 257.369 274.051 257.437 274.359H290.139C290.208 274.051 290.249 273.73 290.249 273.401V255.412C290.249 255.084 290.208 254.762 290.139 254.455H257.437C257.369 254.762 257.328 255.077 257.328 255.412Z" fill="#2C5973"/>
<path d="M280.898 265.132C281.532 261.216 278.871 257.528 274.955 256.895C271.039 256.261 267.352 258.922 266.718 262.838C266.085 266.754 268.746 270.441 272.661 271.075C276.577 271.708 280.265 269.048 280.898 265.132Z" fill="#7491A3"/>
<path d="M271.309 260.159L278.326 264.215L271.309 268.265V260.159Z" fill="#FEFDFE"/>
<path d="M254.008 210.95C255.167 203.852 250.349 197.157 243.247 195.998C236.145 194.839 229.448 199.653 228.289 206.752C227.131 213.85 231.949 220.544 239.051 221.704C246.153 222.863 252.85 218.048 254.008 210.95Z" fill="white"/>
<path d="M249.14 206.212C249.14 203.763 246.678 201.807 244.489 203.134C242.738 204.194 241.165 206.212 241.165 206.212C241.165 206.212 239.687 204.263 237.998 203.23C235.775 201.862 233.189 203.709 233.189 206.212C233.189 210.617 241.165 216.363 241.165 216.363C241.165 216.363 249.14 210.617 249.14 206.212Z" fill="#FB611F"/>
<path d="M241.192 206.178C241.172 206.198 241.165 206.212 241.165 206.212C241.165 206.212 239.687 204.263 237.998 203.23C235.775 201.862 233.189 203.709 233.189 206.212C233.189 210.617 241.165 216.363 241.165 216.363C241.165 216.363 241.178 216.356 241.192 216.342V206.178Z" fill="#FC8857"/>
<path opacity="0.5" d="M85.8146 108.27C102.436 108.27 115.911 94.7957 115.911 78.1741C115.911 61.5526 102.436 48.0781 85.8146 48.0781C69.1931 48.0781 55.7186 61.5526 55.7186 78.1741C55.7186 94.7957 69.1931 108.27 85.8146 108.27Z" fill="white"/>
<path d="M96.5603 69.5079H94.8913V64.8636C94.8913 61.4299 92.1006 58.6392 88.6669 58.6392C85.2332 58.6392 82.4425 61.4299 82.4425 64.8636V69.5079H80.7736V64.8636C80.7736 60.5133 84.3167 56.9702 88.6669 56.9702C93.0172 56.9702 96.5603 60.5133 96.5603 64.8636V69.5079Z" fill="#7290A1"/>
<path d="M101.471 67.9556H67.5176V92.2923H101.471V67.9556Z" fill="#FB611F"/>
<path d="M72.2851 84.6108C70.8282 84.0157 70.2947 83.4275 70.2947 82.1621C70.2947 80.6367 71.3549 79.7817 73.0375 79.7817C73.6531 79.7817 74.2345 79.898 74.7407 80.0895L75.4452 80.3495C75.541 80.3837 75.5615 80.4452 75.541 80.5341L75.1032 81.8337C75.069 81.9295 75.0143 81.9637 74.9322 81.9295L74.3029 81.7175C73.8788 81.5738 73.4684 81.4712 73.0307 81.4712C72.4356 81.4712 72.0252 81.7448 72.0252 82.1689C72.0252 82.5793 72.3535 82.764 72.9623 83.0102L73.8583 83.3727C75.3426 83.9815 75.8693 84.5903 75.8693 85.8557C75.8693 87.4494 74.8706 88.2975 73.058 88.2907C72.4151 88.2907 71.8405 88.2155 70.9582 87.9008L70.2536 87.6546C70.1579 87.6204 70.1374 87.5588 70.1579 87.4699L70.5888 86.1771C70.623 86.0814 70.6777 86.0472 70.7598 86.0814L71.5054 86.3276C72.1346 86.5397 72.6066 86.6081 73.0649 86.6081C73.6394 86.6081 74.1319 86.4576 74.1319 85.842C74.1319 85.4931 73.7626 85.2264 73.1743 84.9801L72.2851 84.6108Z" fill="white"/>
<path d="M78.6326 87.0799L78.3112 88.0581C78.277 88.1401 78.2222 88.1743 78.1538 88.1743H76.649C76.5396 88.1743 76.4986 88.1059 76.5328 87.9965L78.0444 83.5573C78.4411 82.374 78.7968 81.2317 79.0636 80.0553C79.0841 79.9732 79.1388 79.9253 79.2209 79.9253L81.2045 79.9321C81.2866 79.9321 81.3413 79.98 81.3618 80.0621C81.6286 81.2386 81.9774 82.3809 82.3673 83.5642L83.8652 88.0102C83.8994 88.1128 83.8516 88.188 83.749 88.188L82.2442 88.1812C82.1689 88.1812 82.1142 88.147 82.0868 88.0649L81.7722 87.0868L78.6326 87.0799ZM81.0745 84.9801C80.7667 84.0567 80.4247 82.9623 80.3016 82.2099C80.2674 82.0731 80.1443 82.0731 80.1101 82.2099C79.9733 82.9691 79.6381 84.0498 79.3235 84.9801L79.173 85.4452L81.2182 85.452L81.0745 84.9801Z" fill="white"/>
<path d="M89.7066 86.5601C89.7887 86.5601 89.8434 86.6216 89.8434 86.7106V88.0512C89.8434 88.147 89.7887 88.2017 89.7066 88.2017L85.0212 88.188C84.9391 88.188 84.8844 88.1264 84.8844 88.0375L84.8981 80.0894C84.8981 79.9937 84.9528 79.939 85.0349 79.939H86.485C86.567 79.939 86.6218 80.0005 86.6218 80.0894L86.6081 86.5464L89.7066 86.5601Z" fill="white"/>
<path d="M95.377 83.1538C95.459 83.1538 95.5138 83.2153 95.5138 83.3042V84.6449C95.5138 84.7406 95.459 84.7954 95.377 84.7954L92.7641 84.7885L92.7572 86.5669L96.2456 86.5738C96.3277 86.5738 96.3824 86.6353 96.3824 86.7242V88.0649C96.3824 88.1606 96.3277 88.2154 96.2456 88.2154L91.1704 88.2017C91.0883 88.2017 91.0336 88.1401 91.0336 88.0512L91.0472 80.1031C91.0472 80.0074 91.102 79.9526 91.184 79.9526L96.314 79.9663C96.4098 79.9663 96.4508 80.0347 96.4303 80.1442L96.0883 81.4916C96.0678 81.5737 96.0131 81.6216 95.9378 81.6216L92.7709 81.6148V83.1538H95.377Z" fill="white"/>
<path d="M105.062 67.9556H97.9556V92.2923H105.062V67.9556Z" fill="#FB611F"/>
<path opacity="0.86" d="M105.056 67.9556H98.5507V92.2923H105.056V67.9556Z" fill="#EAE4D9"/>
<path d="M77.3057 69.8294C77.3057 70.5339 76.738 71.1016 76.0334 71.1016C75.3289 71.1016 74.7612 70.5339 74.7612 69.8294C74.7612 69.1248 75.3289 68.5571 76.0334 68.5571C76.738 68.5571 77.3057 69.1248 77.3057 69.8294Z" fill="#C7C3BC"/>
<path d="M91.3345 69.8294C91.3345 70.5339 90.7668 71.1016 90.0623 71.1016C89.3578 71.1016 88.79 70.5339 88.79 69.8294C88.79 69.1248 89.3578 68.5571 90.0623 68.5571C90.7668 68.5571 91.3345 69.1248 91.3345 69.8294Z" fill="#C7C3BC"/>
<path d="M90.1102 70.1921C89.645 70.1921 89.2757 69.8159 89.2757 69.3576V65.0826C89.2757 61.772 86.7791 58.8719 83.4754 58.653C79.8502 58.4136 76.8269 61.2864 76.8269 64.8637V69.3576C76.8269 69.8227 76.4507 70.1921 75.9924 70.1921C75.5341 70.1921 75.1579 69.8159 75.1579 69.3576V65.0963C75.1579 60.9854 78.2017 57.3876 82.292 57.0045C86.9843 56.5599 90.9515 60.2604 90.9515 64.8637V69.3576C90.9446 69.8227 90.5684 70.1921 90.1102 70.1921Z" fill="#2C5973"/>
</svg>
