<svg width="267" height="228" viewBox="0 0 267 228" fill="none" xmlns="http://www.w3.org/2000/svg">
<path fill-rule="evenodd" clip-rule="evenodd" d="M13.3096 226.348C13.3096 226.348 -9.964 190.612 5.0409 158.799C29.7061 106.499 1.47786 51.4036 56.8707 34.8223C89.1454 25.1608 142.316 -24.777 195.988 15.443C233.574 43.6082 213.718 100.703 242.799 121.828C275.639 145.686 271.445 188.87 250.33 225.419L13.3096 226.348Z" fill="#EEF7F6"/>
<path fill-rule="evenodd" clip-rule="evenodd" d="M90.11 68.7558C90.403 68.9158 90.6779 69.0634 90.9315 69.1964C91.1568 69.3147 91.4363 69.2279 91.5546 69.0014C91.6729 68.7761 91.5861 68.4966 91.3597 68.3783C91.1106 68.2476 90.8402 68.1022 90.5517 67.9456C90.3275 67.8239 90.0469 67.9062 89.9252 68.1304C89.8035 68.3535 89.8858 68.6341 90.11 68.7558ZM86.8749 66.963C87.1476 67.114 87.4169 67.2627 87.6817 67.4103C87.9048 67.5343 88.1865 67.4543 88.3104 67.2312C88.4344 67.0081 88.3544 66.7264 88.1313 66.6024C87.8665 66.4548 87.596 66.3049 87.3222 66.1539C87.0991 66.0311 86.8174 66.1122 86.6946 66.3353C86.5706 66.5585 86.6517 66.839 86.8749 66.963ZM83.6296 65.2299C83.9 65.3663 84.1716 65.5071 84.4454 65.6502C84.6719 65.7686 84.9502 65.6807 85.0686 65.4553C85.1869 65.2288 85.099 64.9505 84.8736 64.8322C84.5964 64.6868 84.3203 64.5448 84.0465 64.4062C83.8189 64.2913 83.5406 64.3814 83.4256 64.609C83.3107 64.8367 83.402 65.115 83.6296 65.2299ZM66.4826 75.2587C66.2752 75.4818 66.0657 75.6926 65.8549 75.8886C65.6679 76.0622 65.6566 76.3551 65.8301 76.5411C66.0037 76.7281 66.2967 76.7394 66.4826 76.5659C66.7102 76.3551 66.9356 76.1275 67.1598 75.8875C67.3333 75.7005 67.3221 75.4075 67.135 75.2351C66.948 75.0604 66.655 75.0717 66.4826 75.2587ZM63.7061 77.3152C63.4401 77.4166 63.1776 77.4865 62.9184 77.5192C62.666 77.5518 62.4868 77.784 62.5195 78.0364C62.5522 78.2888 62.7843 78.468 63.0367 78.4353C63.3646 78.3925 63.6982 78.3068 64.034 78.1784C64.2717 78.0871 64.3923 77.82 64.301 77.5823C64.2109 77.3434 63.9438 77.2239 63.7061 77.3152ZM68.6078 72.3639C68.4523 72.6253 68.2923 72.8811 68.13 73.1301C67.9903 73.3431 68.05 73.6305 68.263 73.7702C68.4759 73.9099 68.7633 73.8502 68.903 73.6372C69.0732 73.3769 69.2411 73.1099 69.4033 72.836C69.534 72.6163 69.4608 72.3335 69.2422 72.2028C69.0225 72.0721 68.7385 72.1442 68.6078 72.3639ZM80.3122 63.7346C80.5792 63.8315 80.8598 63.9431 81.1506 64.0648C81.3861 64.1639 81.6565 64.0524 81.7557 63.818C81.8548 63.5825 81.7433 63.3121 81.5089 63.2129C81.2035 63.0844 80.9083 62.9684 80.6277 62.8658C80.3877 62.7791 80.1229 62.903 80.035 63.1419C79.9494 63.3819 80.0733 63.6479 80.3122 63.7346ZM60.454 77.1011C60.1903 76.9862 59.9503 76.8509 59.7351 76.6966C59.5278 76.5478 59.2393 76.5963 59.0906 76.8025C58.9418 77.0098 58.9903 77.2983 59.1965 77.447C59.4624 77.6375 59.7576 77.8054 60.0856 77.9474C60.3199 78.0488 60.5915 77.9417 60.694 77.7073C60.7955 77.4752 60.6884 77.2025 60.454 77.1011ZM70.1921 69.1119C70.0817 69.3936 69.9656 69.673 69.845 69.948C69.7425 70.1812 69.8496 70.4539 70.0828 70.5565C70.3161 70.659 70.5888 70.552 70.6913 70.3187C70.8164 70.0325 70.9369 69.7418 71.0519 69.4488C71.1454 69.211 71.0271 68.9428 70.7905 68.8504C70.5538 68.7569 70.2845 68.8741 70.1921 69.1119ZM76.81 62.8963C77.1052 62.9425 77.4027 62.9954 77.7036 63.054C77.9537 63.1025 78.1971 62.9391 78.2456 62.6889C78.294 62.4388 78.1306 62.1954 77.8805 62.1469C77.5684 62.0861 77.2596 62.032 76.9542 61.9835C76.7018 61.9441 76.4652 62.1165 76.4257 62.3678C76.3852 62.6191 76.5576 62.8557 76.81 62.8963ZM71.2254 65.6502C71.1646 65.9443 71.0981 66.2373 71.0237 66.5303C70.9617 66.7771 71.1116 67.0295 71.3584 67.0915C71.6052 67.1546 71.8576 67.0047 71.9195 66.7568C71.9973 66.4503 72.0683 66.1427 72.1314 65.8362C72.1832 65.586 72.021 65.3415 71.7719 65.2908C71.5229 65.2401 71.2773 65.4001 71.2254 65.6502ZM58.4178 74.7043C58.3547 74.4395 58.3164 74.1635 58.3029 73.8772C58.2905 73.6226 58.0742 73.4254 57.8195 73.4378C57.5648 73.4502 57.3676 73.6665 57.38 73.9212C57.3969 74.2671 57.4431 74.6018 57.5198 74.9207C57.5795 75.1686 57.8285 75.3218 58.0764 75.2621C58.3243 75.2024 58.4776 74.9522 58.4178 74.7043ZM73.2041 62.6202C73.5016 62.6179 73.8025 62.6224 74.1079 62.6326C74.3625 62.6416 74.5766 62.4421 74.5856 62.1875C74.5946 61.9328 74.3952 61.7187 74.1405 61.7097C73.8216 61.6984 73.5073 61.6939 73.1962 61.6962C72.9416 61.6984 72.7354 61.9069 72.7376 62.1616C72.7399 62.4162 72.9483 62.6224 73.2041 62.6202ZM71.5747 62.0816C71.5815 62.3768 71.577 62.6754 71.5646 62.9763C71.5533 63.2309 71.7516 63.4462 72.0063 63.4574C72.261 63.4687 72.4762 63.2704 72.4875 63.0157C72.501 62.6957 72.5044 62.3779 72.4976 62.0624C72.492 61.8077 72.2813 61.6049 72.0255 61.6105C71.7719 61.6162 71.5691 61.8269 71.5747 62.0816ZM58.7334 71.3396C58.8303 71.0703 58.9441 70.7999 59.0725 70.5283C59.1818 70.2984 59.0827 70.0223 58.8528 69.913C58.6218 69.8037 58.3469 69.9029 58.2376 70.1328C58.0967 70.4314 57.9716 70.73 57.8646 71.0264C57.7778 71.2664 57.9029 71.5312 58.1418 71.6179C58.3818 71.7036 58.6466 71.5785 58.7334 71.3396ZM69.6186 62.9819C69.9093 62.9233 70.2056 62.8726 70.5065 62.8275C70.7589 62.7903 70.9336 62.5548 70.8953 62.3024C70.8581 62.05 70.6226 61.8753 70.3702 61.9137C70.0546 61.961 69.7425 62.0151 69.4371 62.0759C69.187 62.1255 69.0247 62.3689 69.0743 62.6191C69.125 62.8692 69.3684 63.0315 69.6186 62.9819ZM66.1874 64.0434C66.4589 63.9262 66.7372 63.8146 67.0223 63.7098C67.2612 63.6219 67.384 63.356 67.2962 63.1171C67.2083 62.8782 66.9423 62.7554 66.7034 62.8433C66.4026 62.9537 66.1096 63.0709 65.8223 63.1949C65.5879 63.2963 65.4797 63.5679 65.5811 63.8022C65.6814 64.0366 65.953 64.1448 66.1874 64.0434ZM60.4946 68.2836C60.6783 68.056 60.8721 67.8307 61.0772 67.6087C61.2507 67.4216 61.2383 67.1286 61.0512 66.9562C60.8642 66.7827 60.5712 66.7951 60.3988 66.9822C60.1791 67.2199 59.9706 67.4611 59.7745 67.7056C59.6145 67.9039 59.6461 68.1958 59.8444 68.3546C60.0439 68.5135 60.3346 68.482 60.4946 68.2836ZM70.9516 58.6143C71.0541 58.887 71.1432 59.1653 71.2187 59.4504C71.284 59.6972 71.5375 59.8437 71.7843 59.7772C72.0311 59.7118 72.1776 59.4583 72.1111 59.2115C72.0266 58.8971 71.9286 58.5884 71.8159 58.2886C71.7257 58.0498 71.4598 57.9292 71.2209 58.0193C70.9831 58.1095 70.8626 58.3765 70.9516 58.6143ZM63.0784 65.8238C63.3162 65.648 63.5618 65.4778 63.8154 65.3133C64.0295 65.1747 64.0892 64.8874 63.9506 64.6744C63.812 64.4603 63.5246 64.4006 63.3117 64.5392C63.0424 64.7138 62.7821 64.8953 62.5297 65.0812C62.3246 65.2322 62.2806 65.5218 62.4327 65.7269C62.5837 65.9308 62.8733 65.9748 63.0784 65.8238ZM69.0394 55.7488C69.2557 55.946 69.4563 56.1544 69.6422 56.3719C69.8079 56.5657 70.0997 56.5883 70.2935 56.4226C70.4873 56.257 70.5099 55.9651 70.3442 55.7713C70.1346 55.5256 69.907 55.2901 69.6625 55.067C69.4743 54.8946 69.1813 54.9081 69.0101 55.0963C68.8377 55.2834 68.8512 55.5764 69.0394 55.7488ZM66.051 53.9255C66.3181 54.0258 66.5863 54.1419 66.8556 54.2749C67.0843 54.3875 67.3615 54.294 67.4742 54.0653C67.5869 53.8365 67.4933 53.5593 67.2657 53.4466C66.9682 53.299 66.6719 53.1706 66.3755 53.0601C66.1366 52.97 65.8707 53.0917 65.7806 53.3306C65.6915 53.5695 65.8121 53.8354 66.051 53.9255ZM62.6006 53.3971C62.8959 53.3869 63.1911 53.3869 63.4852 53.4016C63.7399 53.414 63.9573 53.2179 63.9697 52.9632C63.9821 52.7086 63.7861 52.4911 63.5314 52.4787C63.2103 52.4629 62.8902 52.4618 62.568 52.4731C62.3133 52.4821 62.1139 52.6962 62.1229 52.9508C62.1319 53.2066 62.346 53.4061 62.6006 53.3971ZM59.0399 53.9413C59.3396 53.8726 59.6359 53.8072 59.9312 53.7475C60.1813 53.6968 60.3425 53.4523 60.2918 53.2021C60.2411 52.952 59.9965 52.7908 59.7475 52.8415C59.4444 52.9024 59.1401 52.97 58.8336 53.041C58.5846 53.0985 58.4302 53.3464 58.4866 53.5954C58.5429 53.8422 58.7908 53.9977 59.0399 53.9413ZM55.443 54.8045C55.7484 54.7369 56.0515 54.6659 56.3501 54.5938C56.598 54.534 56.7513 54.285 56.6915 54.0371C56.6318 53.7892 56.3828 53.636 56.1349 53.6957C55.8408 53.7667 55.5433 53.8354 55.2424 53.903C54.9934 53.9582 54.8368 54.205 54.892 54.454C54.9472 54.7031 55.194 54.8597 55.443 54.8045ZM51.738 55.4073C52.0546 55.3792 52.3668 55.3454 52.6755 55.3048C52.9279 55.2721 53.1071 55.04 53.0744 54.7876C53.0417 54.5352 52.8096 54.356 52.5561 54.3887C52.2597 54.427 51.96 54.4608 51.6568 54.4867C51.4033 54.5092 51.2151 54.7335 51.2377 54.987C51.2591 55.2428 51.4833 55.4299 51.738 55.4073Z" fill="#89BEC6"/>
<path fill-rule="evenodd" clip-rule="evenodd" d="M226.946 129.431C226.955 129.458 226.965 129.485 226.974 129.512C227.045 129.718 227.269 129.828 227.475 129.757C227.681 129.686 227.791 129.461 227.72 129.255C227.71 129.227 227.701 129.2 227.691 129.172C227.62 128.966 227.394 128.857 227.188 128.928C226.983 129.001 226.874 129.225 226.946 129.431ZM225.733 126.581C225.849 126.807 225.963 127.038 226.075 127.275C226.167 127.473 226.401 127.558 226.599 127.466C226.796 127.373 226.881 127.139 226.789 126.942C226.674 126.695 226.555 126.454 226.434 126.22C226.334 126.026 226.096 125.95 225.902 126.05C225.71 126.15 225.634 126.389 225.733 126.581ZM224.074 123.994C224.232 124.191 224.386 124.396 224.535 124.607C224.662 124.784 224.908 124.826 225.085 124.699C225.262 124.573 225.304 124.326 225.178 124.15C225.019 123.926 224.857 123.711 224.691 123.503C224.556 123.333 224.307 123.304 224.136 123.44C223.967 123.575 223.939 123.824 224.074 123.994ZM221.911 121.836C222.11 121.993 222.306 122.156 222.498 122.326C222.661 122.471 222.91 122.456 223.055 122.292C223.199 122.129 223.184 121.88 223.021 121.736C222.817 121.556 222.608 121.382 222.397 121.215C222.225 121.081 221.977 121.11 221.843 121.282C221.709 121.454 221.74 121.702 221.911 121.836ZM219.3 120.239C219.532 120.349 219.761 120.464 219.986 120.584C220.178 120.687 220.417 120.615 220.52 120.423C220.623 120.232 220.551 119.993 220.359 119.889C220.123 119.762 219.88 119.641 219.636 119.526C219.439 119.434 219.203 119.518 219.111 119.715C219.018 119.913 219.104 120.147 219.3 120.239ZM216.402 119.189C216.653 119.258 216.9 119.33 217.144 119.407C217.352 119.472 217.574 119.356 217.639 119.149C217.705 118.941 217.588 118.719 217.381 118.654C217.128 118.574 216.871 118.498 216.61 118.427C216.401 118.37 216.183 118.494 216.126 118.704C216.068 118.914 216.192 119.131 216.402 119.189ZM213.358 118.55C213.617 118.591 213.873 118.634 214.127 118.68C214.341 118.718 214.546 118.576 214.584 118.362C214.623 118.148 214.481 117.943 214.267 117.905C214.007 117.857 213.745 117.813 213.48 117.773C213.265 117.739 213.063 117.887 213.029 118.102C212.997 118.315 213.144 118.518 213.358 118.55ZM210.253 118.178C210.515 118.202 210.776 118.227 211.033 118.254C211.249 118.276 211.443 118.119 211.465 117.902C211.488 117.686 211.33 117.492 211.114 117.47C210.852 117.443 210.589 117.418 210.324 117.393C210.107 117.374 209.915 117.534 209.896 117.75C209.875 117.967 210.035 118.159 210.253 118.178ZM207.116 117.953C207.342 117.968 207.568 117.981 207.792 117.995C207.829 117.997 207.866 117.999 207.903 118.002C208.121 118.015 208.308 117.851 208.321 117.633C208.335 117.416 208.17 117.229 207.953 117.215C207.916 117.213 207.879 117.21 207.841 117.208C207.617 117.195 207.393 117.18 207.166 117.167C206.949 117.153 206.762 117.319 206.748 117.536C206.734 117.751 206.899 117.94 207.116 117.953ZM203.953 117.696C204.216 117.725 204.481 117.752 204.745 117.777C204.961 117.798 205.154 117.638 205.174 117.421C205.194 117.205 205.034 117.012 204.818 116.992C204.559 116.968 204.3 116.941 204.041 116.913C203.824 116.888 203.629 117.045 203.604 117.261C203.58 117.476 203.736 117.671 203.953 117.696ZM200.794 117.153C201.054 117.217 201.316 117.276 201.58 117.33C201.793 117.374 202.001 117.236 202.045 117.022C202.089 116.809 201.951 116.601 201.737 116.557C201.485 116.505 201.234 116.449 200.983 116.387C200.772 116.335 200.559 116.463 200.506 116.675C200.454 116.887 200.583 117.1 200.794 117.153ZM197.751 116.054C197.993 116.176 198.24 116.29 198.49 116.396C198.69 116.48 198.921 116.387 199.007 116.186C199.092 115.986 198.998 115.753 198.797 115.669C198.563 115.57 198.332 115.463 198.104 115.349C197.909 115.251 197.673 115.33 197.575 115.525C197.477 115.72 197.556 115.956 197.751 116.054ZM195.178 114.011C195.055 114.126 195.016 114.313 195.094 114.473C195.189 114.668 195.426 114.749 195.622 114.654L195.704 114.613L195.718 114.628C195.87 114.783 196.12 114.786 196.276 114.633C196.378 114.533 196.414 114.389 196.383 114.258C196.539 114.144 196.591 113.929 196.498 113.753C196.395 113.562 196.156 113.489 195.963 113.592L195.886 113.634C195.853 113.594 195.821 113.555 195.79 113.514C195.656 113.343 195.407 113.314 195.235 113.448C195.064 113.582 195.035 113.831 195.169 114.002L195.178 114.011ZM192.676 115.895C192.929 115.804 193.178 115.711 193.424 115.615C193.626 115.536 193.727 115.307 193.648 115.104C193.569 114.902 193.34 114.801 193.137 114.88C192.897 114.974 192.654 115.065 192.407 115.154C192.202 115.228 192.096 115.455 192.17 115.659C192.246 115.863 192.472 115.97 192.676 115.895ZM189.641 116.857C189.898 116.786 190.152 116.712 190.406 116.638C190.614 116.576 190.734 116.357 190.673 116.148C190.611 115.939 190.391 115.82 190.183 115.882C189.934 115.955 189.684 116.027 189.431 116.097C189.222 116.155 189.098 116.372 189.156 116.583C189.214 116.792 189.431 116.915 189.641 116.857ZM186.554 117.613C186.814 117.556 187.072 117.499 187.329 117.44C187.54 117.392 187.673 117.18 187.625 116.968C187.576 116.756 187.365 116.623 187.152 116.672C186.898 116.73 186.643 116.787 186.386 116.843C186.174 116.889 186.038 117.099 186.084 117.312C186.132 117.524 186.343 117.659 186.554 117.613ZM198.396 113.04C198.618 112.888 198.838 112.73 199.053 112.567C199.226 112.435 199.259 112.187 199.128 112.014C198.996 111.84 198.748 111.807 198.574 111.939C198.37 112.095 198.162 112.245 197.951 112.388C197.771 112.51 197.725 112.756 197.847 112.935C197.97 113.117 198.216 113.163 198.396 113.04ZM183.441 118.214C183.701 118.169 183.962 118.123 184.222 118.076C184.436 118.036 184.578 117.831 184.54 117.617C184.5 117.403 184.295 117.261 184.081 117.299C183.824 117.347 183.566 117.392 183.308 117.436C183.094 117.473 182.95 117.677 182.986 117.891C183.022 118.107 183.226 118.252 183.441 118.214ZM180.309 118.698C180.571 118.662 180.832 118.625 181.094 118.586C181.309 118.555 181.459 118.354 181.427 118.139C181.396 117.924 181.195 117.774 180.98 117.805C180.721 117.844 180.462 117.88 180.201 117.916C179.986 117.945 179.835 118.145 179.864 118.361C179.895 118.577 180.094 118.728 180.309 118.698ZM200.822 110.857C200.889 110.772 200.954 110.685 201.016 110.597C201.114 110.46 201.208 110.314 201.296 110.164C201.406 109.977 201.344 109.735 201.156 109.625C200.969 109.514 200.727 109.576 200.616 109.764C200.539 109.895 200.458 110.021 200.373 110.141C200.317 110.22 200.259 110.296 200.2 110.373C200.066 110.544 200.097 110.792 200.269 110.926C200.441 111.059 200.689 111.029 200.822 110.857ZM177.169 119.091C177.43 119.062 177.692 119.031 177.954 119C178.171 118.974 178.325 118.778 178.299 118.562C178.273 118.345 178.077 118.191 177.861 118.217C177.599 118.248 177.339 118.278 177.08 118.307C176.864 118.332 176.708 118.527 176.732 118.743C176.758 118.959 176.953 119.116 177.169 119.091ZM174.024 119.417C174.285 119.392 174.547 119.366 174.811 119.34C175.027 119.319 175.186 119.125 175.164 118.909C175.143 118.692 174.949 118.533 174.733 118.555C174.47 118.581 174.209 118.605 173.95 118.63C173.733 118.651 173.573 118.843 173.595 119.061C173.615 119.278 173.808 119.437 174.024 119.417ZM193.623 111.121C193.715 111.379 193.815 111.632 193.923 111.879C194.009 112.079 194.243 112.17 194.442 112.083C194.642 111.997 194.733 111.763 194.646 111.564C194.546 111.333 194.452 111.096 194.366 110.855C194.292 110.65 194.067 110.543 193.862 110.616C193.657 110.691 193.55 110.916 193.623 111.121ZM170.877 119.696C171.137 119.675 171.4 119.652 171.663 119.63C171.88 119.611 172.041 119.42 172.023 119.203C172.004 118.986 171.813 118.825 171.596 118.843C171.332 118.866 171.071 118.888 170.81 118.91C170.593 118.928 170.432 119.119 170.451 119.336C170.469 119.553 170.66 119.714 170.877 119.696ZM202.175 107.841C202.231 107.572 202.274 107.299 202.304 107.024C202.328 106.808 202.171 106.613 201.955 106.589C201.738 106.565 201.543 106.722 201.52 106.938C201.493 107.187 201.453 107.435 201.403 107.679C201.359 107.892 201.495 108.101 201.708 108.145C201.921 108.19 202.131 108.054 202.175 107.841ZM167.732 119.955C167.99 119.934 168.252 119.913 168.517 119.891C168.735 119.873 168.896 119.683 168.878 119.466C168.86 119.25 168.669 119.088 168.453 119.106C168.187 119.127 167.926 119.149 167.666 119.17C167.449 119.188 167.288 119.379 167.306 119.596C167.324 119.812 167.515 119.973 167.732 119.955ZM192.915 107.957C192.942 108.225 192.977 108.493 193.021 108.761C193.056 108.977 193.259 109.122 193.473 109.088C193.688 109.053 193.835 108.851 193.8 108.636C193.759 108.383 193.726 108.13 193.7 107.877C193.677 107.661 193.484 107.503 193.267 107.524C193.052 107.547 192.894 107.741 192.915 107.957ZM202.184 104.543C202.122 104.267 202.043 103.996 201.947 103.735C201.871 103.531 201.644 103.426 201.44 103.503C201.236 103.578 201.131 103.806 201.207 104.01C201.291 104.237 201.36 104.473 201.414 104.715C201.461 104.928 201.672 105.062 201.885 105.015C202.097 104.965 202.231 104.754 202.184 104.543ZM193.002 104.706C192.957 104.97 192.921 105.241 192.896 105.518C192.876 105.735 193.036 105.928 193.252 105.948C193.469 105.968 193.661 105.808 193.682 105.592C193.705 105.336 193.738 105.085 193.78 104.84C193.817 104.626 193.673 104.422 193.457 104.385C193.243 104.347 193.039 104.491 193.002 104.706ZM200.5 101.642C200.285 101.463 200.048 101.302 199.791 101.161C199.789 101.16 199.788 101.159 199.786 101.158C199.595 101.053 199.355 101.123 199.25 101.314C199.146 101.505 199.215 101.745 199.406 101.85C199.408 101.851 199.409 101.852 199.412 101.853C199.623 101.969 199.818 102.102 199.996 102.25C200.164 102.388 200.412 102.366 200.552 102.198C200.692 102.03 200.668 101.782 200.5 101.642ZM194.274 101.635C194.097 101.85 193.936 102.087 193.792 102.345C193.686 102.536 193.754 102.776 193.943 102.882C194.133 102.988 194.373 102.92 194.479 102.731C194.6 102.515 194.734 102.316 194.882 102.137C195.02 101.969 194.995 101.72 194.828 101.581C194.662 101.444 194.413 101.468 194.274 101.635ZM197.413 100.35C197.105 100.318 196.813 100.322 196.537 100.355C196.321 100.382 196.167 100.58 196.194 100.795C196.221 101.011 196.419 101.164 196.634 101.137C196.854 101.11 197.087 101.108 197.333 101.133C197.549 101.155 197.743 100.998 197.765 100.78C197.788 100.563 197.629 100.372 197.413 100.35Z" fill="#89BEC6"/>
<path fill-rule="evenodd" clip-rule="evenodd" d="M42.365 39.405C46.6244 39.405 50.0815 42.9591 50.0815 47.3368C50.0815 53.371 42.365 60.7608 42.365 60.7608C42.365 60.7608 34.6484 53.433 34.6484 47.3368C34.6484 42.9591 38.1056 39.405 42.365 39.405ZM42.365 42.5838C44.6829 42.5838 46.5658 44.4363 46.5658 46.717C46.5658 48.9989 44.684 50.8503 42.365 50.8503C40.0471 50.8503 38.1642 48.9978 38.1642 46.717C38.1642 44.4363 40.0471 42.5838 42.365 42.5838Z" fill="#9FC9D0"/>
<path fill-rule="evenodd" clip-rule="evenodd" d="M205.85 28.2236C208.703 28.2236 211.021 30.6046 211.021 33.5378C211.021 37.5809 205.85 42.5321 205.85 42.5321C205.85 42.5321 200.68 37.6214 200.68 33.5378C200.68 30.6046 202.997 28.2236 205.85 28.2236ZM205.85 30.3533C207.403 30.3533 208.665 31.594 208.665 33.1231C208.665 34.6522 207.404 35.8929 205.85 35.8929C204.296 35.8929 203.036 34.6522 203.036 33.1231C203.037 31.594 204.298 30.3533 205.85 30.3533Z" fill="#CAE7E4"/>
<path fill-rule="evenodd" clip-rule="evenodd" d="M229.864 143.789V147.338C229.291 147.318 228.732 147.237 228.196 147.1C228.062 146.941 227.934 146.767 227.81 146.579C227.391 145.945 227.031 145.154 226.752 144.248C227.713 143.973 228.763 143.812 229.864 143.789ZM230.394 143.789C231.495 143.812 232.545 143.973 233.506 144.249C233.227 145.155 232.867 145.946 232.448 146.58C232.324 146.769 232.196 146.942 232.062 147.101C231.526 147.238 230.967 147.32 230.394 147.339V143.789ZM226.248 144.407C226.538 145.343 226.909 146.165 227.338 146.826C226.329 146.438 225.422 145.846 224.666 145.101C225.153 144.833 225.683 144.599 226.248 144.407ZM234.009 144.407C234.574 144.599 235.105 144.833 235.591 145.101C234.835 145.846 233.928 146.438 232.919 146.826C233.35 146.165 233.719 145.344 234.009 144.407ZM225.564 139.824C225.585 141.298 225.778 142.683 226.102 143.898C225.45 144.118 224.843 144.39 224.291 144.705L224.29 144.704C224.194 144.596 224.102 144.486 224.013 144.373C223.833 144.146 223.668 143.91 223.515 143.664C223.185 143.136 222.921 142.568 222.727 141.975C222.589 141.555 222.488 141.121 222.425 140.684C222.384 140.402 222.36 140.119 222.349 139.835V139.824H225.564ZM237.908 139.824C237.844 141.692 237.122 143.395 235.966 144.705C235.414 144.39 234.806 144.118 234.155 143.898C234.48 142.681 234.672 141.297 234.693 139.824H237.908ZM234.164 139.824C234.144 141.24 233.961 142.572 233.651 143.742C232.645 143.452 231.547 143.283 230.394 143.26V139.824H234.164ZM226.094 139.824H229.864V143.26C228.711 143.282 227.613 143.452 226.607 143.742C226.297 142.572 226.114 141.24 226.094 139.824ZM224.292 134.412C224.844 134.727 225.452 134.999 226.103 135.218C225.778 136.435 225.586 137.82 225.565 139.293H222.349C222.412 137.426 223.135 135.722 224.292 134.412ZM233.651 135.376C233.96 136.545 234.144 137.878 234.164 139.294H230.394V135.859C231.545 135.836 232.644 135.666 233.651 135.376ZM235.967 134.414C236.062 134.522 236.155 134.633 236.244 134.746C236.424 134.973 236.589 135.209 236.742 135.455C237.071 135.984 237.336 136.552 237.53 137.144C237.668 137.565 237.769 137.998 237.832 138.436C237.873 138.717 237.899 139 237.908 139.284V139.295H234.693C234.672 137.821 234.479 136.437 234.155 135.221C234.806 135.001 235.414 134.729 235.966 134.414H235.967ZM226.607 135.376C227.613 135.666 228.711 135.835 229.864 135.857V139.293H226.094C226.114 137.878 226.297 136.546 226.607 135.376ZM229.864 131.781V135.329C228.763 135.306 227.713 135.145 226.752 134.869C227.032 133.963 227.391 133.172 227.81 132.538C227.934 132.351 228.062 132.176 228.196 132.018C228.732 131.881 229.291 131.8 229.864 131.781ZM230.394 131.781C230.967 131.8 231.525 131.881 232.062 132.018C232.194 132.177 232.324 132.351 232.448 132.538C232.867 133.172 233.227 133.963 233.506 134.869C232.545 135.145 231.495 135.306 230.394 135.329V131.781ZM227.338 132.292C226.909 132.955 226.538 133.775 226.248 134.711C225.683 134.519 225.152 134.285 224.666 134.017C225.422 133.271 226.329 132.68 227.338 132.292ZM232.919 132.292C233.928 132.68 234.836 133.272 235.591 134.017C235.104 134.285 234.574 134.519 234.009 134.711C233.719 133.774 233.35 132.954 232.919 132.292Z" fill="#9FC9D0"/>
<path fill-rule="evenodd" clip-rule="evenodd" d="M35.16 143.423V147.339C34.5267 147.317 33.9114 147.228 33.3199 147.076C33.1722 146.901 33.0303 146.709 32.8939 146.503C32.4319 145.803 32.0353 144.93 31.7265 143.931C32.7869 143.626 33.9452 143.448 35.16 143.423ZM35.7437 143.423C36.9584 143.448 38.1168 143.626 39.1771 143.93C38.8684 144.93 38.4717 145.802 38.0097 146.501C37.8734 146.709 37.7303 146.9 37.5838 147.075C36.9933 147.226 36.377 147.316 35.7437 147.338V143.423ZM31.171 144.104C31.491 145.137 31.8989 146.043 32.3733 146.773C31.26 146.345 30.2594 145.691 29.4255 144.87C29.9619 144.573 30.5467 144.317 31.171 144.104ZM39.7338 144.104C40.3581 144.315 40.9429 144.573 41.4792 144.87C40.6454 145.692 39.6436 146.345 38.5315 146.773C39.0047 146.043 39.4138 145.138 39.7338 144.104ZM30.416 139.047C30.4385 140.673 30.6515 142.201 31.0099 143.544C30.2909 143.787 29.6216 144.087 29.012 144.434L29.0109 144.433C28.9061 144.313 28.8035 144.191 28.7055 144.066C28.5083 143.816 28.3246 143.555 28.1567 143.284C27.7939 142.701 27.5009 142.074 27.2879 141.422C27.1358 140.957 27.0242 140.48 26.9544 139.996C26.9093 139.686 26.8823 139.373 26.871 139.06V139.047H30.416ZM44.0349 139.047C43.9662 141.11 43.1684 142.988 41.8917 144.434C41.2821 144.086 40.6127 143.786 39.8938 143.544C40.2521 142.201 40.4651 140.672 40.4876 139.047H44.0349ZM39.9039 139.047C39.8814 140.61 39.6797 142.081 39.3383 143.37C38.2283 143.051 37.0159 142.864 35.7437 142.838V139.047H39.9039ZM30.9997 139.047H35.16V142.838C33.8889 142.863 32.6764 143.05 31.5654 143.37C31.224 142.08 31.0222 140.609 30.9997 139.047ZM29.012 133.076C29.6216 133.423 30.2909 133.723 31.0099 133.967C30.6515 135.309 30.4385 136.838 30.416 138.463H26.8699C26.9375 136.401 27.7353 134.522 29.012 133.076ZM39.3383 134.14C39.6797 135.43 39.8814 136.9 39.9039 138.463H35.7437V134.671C37.0159 134.647 38.2272 134.459 39.3383 134.14ZM41.8939 133.077C41.9987 133.197 42.1013 133.319 42.1993 133.444C42.3965 133.694 42.5802 133.955 42.7481 134.226C43.1109 134.809 43.4039 135.436 43.6169 136.09C43.769 136.554 43.8805 137.032 43.9504 137.515C43.9955 137.825 44.0225 138.138 44.0338 138.451V138.464H40.4876C40.4651 136.838 40.2521 135.31 39.8938 133.968C40.6127 133.724 41.2821 133.425 41.8917 133.077H41.8939ZM31.5654 134.14C32.6753 134.459 33.8878 134.647 35.16 134.672V138.464H30.9997C31.0222 136.9 31.224 135.43 31.5654 134.14ZM35.16 130.171V134.087C33.9452 134.062 32.7869 133.884 31.7265 133.58C32.0353 132.581 32.4319 131.708 32.8939 131.009C33.0303 130.801 33.1722 130.61 33.3199 130.435C33.9103 130.283 34.5267 130.193 35.16 130.171ZM35.7437 130.171C36.377 130.193 36.9922 130.282 37.5838 130.434C37.7314 130.609 37.8734 130.8 38.0097 131.007C38.4717 131.707 38.8684 132.581 39.1771 133.579C38.1168 133.883 36.9584 134.061 35.7437 134.086V130.171ZM32.3733 130.736C31.8989 131.466 31.491 132.372 31.171 133.405C30.5467 133.194 29.9619 132.936 29.4255 132.639C30.2594 131.818 31.26 131.164 32.3733 130.736ZM38.5315 130.736C39.6448 131.164 40.6454 131.817 41.4792 132.639C40.9429 132.936 40.3581 133.194 39.7338 133.405C39.4138 132.372 39.0047 131.467 38.5315 130.736Z" fill="#CAE7E4"/>
<path fill-rule="evenodd" clip-rule="evenodd" d="M182.524 147.338H84.2933L52.8378 203.42H213.979L182.524 147.338Z" fill="#213268"/>
<path fill-rule="evenodd" clip-rule="evenodd" d="M143.597 150.097H87.0845L59.8365 199.77H71.6886L143.597 150.097Z" fill="#243A9D"/>
<path fill-rule="evenodd" clip-rule="evenodd" d="M206.981 199.77H79.7397L116.702 174.236H192.974L206.981 199.77Z" fill="#1486CF"/>
<path fill-rule="evenodd" clip-rule="evenodd" d="M123.327 169.66L151.649 150.097H179.733L190.465 169.66H123.327Z" fill="#243A9D"/>
<path fill-rule="evenodd" clip-rule="evenodd" d="M133.409 28.2236C162.439 28.2236 186.009 52.4483 186.009 82.2868C186.009 123.418 133.409 173.787 133.409 173.787C133.409 173.787 80.808 123.838 80.808 82.2868C80.808 52.4483 104.378 28.2236 133.409 28.2236ZM133.409 54.8529C146.429 54.8529 157.001 65.2558 157.001 78.0702C157.001 90.8834 146.43 101.286 133.409 101.286C120.388 101.286 109.816 90.8834 109.816 78.0702C109.816 65.2558 120.388 54.8529 133.409 54.8529Z" fill="#00926E"/>
<path fill-rule="evenodd" clip-rule="evenodd" d="M26.6942 222.263C20.2926 215.691 -4.98672 167.171 6.65459 162.256C13.6195 159.315 13.7255 192.272 28.9129 220.123C35.8722 232.885 27.4108 223 26.6942 222.263Z" fill="#F69B6E"/>
<path fill-rule="evenodd" clip-rule="evenodd" d="M31.7559 226.661C31.7559 226.661 23.5199 216.39 15.9498 195.827C12.5783 186.667 9.33868 175.469 7.0174 162.227C7.00726 162.168 6.9498 162.127 6.88895 162.137C6.82923 162.147 6.78865 162.205 6.7988 162.266C9.05809 175.539 12.247 186.772 15.5791 195.963C23.0815 216.658 31.3119 227.014 31.3119 227.014C31.4088 227.135 31.588 227.156 31.7097 227.059C31.8336 226.962 31.8539 226.783 31.7559 226.661Z" fill="white"/>
<path fill-rule="evenodd" clip-rule="evenodd" d="M26.0158 171.55C21.9592 166.7 22.5057 164.951 22.5057 164.951C22.5057 164.951 19.212 169.322 16.875 181.227L21.3519 182.774L16.5256 183.097C15.9318 186.896 15.6861 191.076 16.1211 195.414C16.591 200.108 17.7505 204.935 19.603 209.4L26.9793 208.288L21.2775 212.969C24.1487 218.409 28.1669 223.026 33.338 225.764C39.557 225.764 45.0153 226.423 55.0351 226.423C55.0351 226.423 64.1016 215.837 58.1452 202.756L52.0186 204.222L57.4792 201.406C55.3495 197.386 51.7572 193.161 46.0272 188.958C43.973 187.452 42.0968 186.031 40.3863 184.693L36.3996 186.248L38.971 183.575C32.9053 178.741 29.0605 175.041 26.6266 172.262L25.3307 173.118L26.0158 171.55Z" fill="#08A4DD"/>
<path fill-rule="evenodd" clip-rule="evenodd" d="M54.3353 226.547C54.3353 226.547 53.0586 221.359 48.5716 213.847C46.5117 210.399 43.7825 206.461 40.1891 202.314C35.6491 197.03 28.7765 189.222 24.801 181.233C22.0065 175.617 20.6397 169.915 22.5057 164.951C20.7963 169.926 22.3051 175.547 25.2157 181.055C29.3647 188.907 36.359 196.525 40.988 201.68C44.6953 205.843 47.527 209.801 49.6635 213.279C53.4767 219.484 55.0914 224.162 55.5715 225.73C55.372 226.113 55.0351 226.424 55.0351 226.424C55.0351 226.424 54.679 226.56 54.3725 226.657C54.3567 226.622 54.3443 226.584 54.3353 226.547Z" fill="white"/>
<path fill-rule="evenodd" clip-rule="evenodd" d="M88.4694 224.385C88.4694 224.385 76.9465 207.407 78.5905 190.131C79.2846 182.843 82.3293 175.504 89.5816 169.368C89.6909 169.277 89.7056 169.114 89.6132 169.004C89.5219 168.895 89.3574 168.88 89.2492 168.973C81.8177 175.177 78.6728 182.641 77.9178 190.065C76.134 207.586 87.7111 224.895 87.7111 224.895C87.8519 225.105 88.137 225.16 88.3466 225.019C88.5551 224.878 88.6103 224.593 88.4694 224.385Z" fill="#9FC9D0"/>
<path fill-rule="evenodd" clip-rule="evenodd" d="M88.236 223.968C88.236 223.968 88.9223 222.733 90.0829 221.028C90.4762 220.449 90.928 219.828 91.4069 219.163C91.7619 218.671 92.1382 218.163 92.5202 217.64C92.8853 217.139 93.2437 216.623 93.6347 216.119C94.4663 215.042 95.3565 214.006 96.436 213.161C96.5205 213.109 96.5464 212.997 96.4946 212.913C96.4427 212.828 96.3312 212.802 96.2467 212.854C94.9441 213.473 93.7541 214.289 92.6915 215.245C92.2588 215.635 91.8565 216.048 91.4847 216.477C91.2311 216.77 90.9934 217.071 90.7782 217.379C90.2012 218.21 89.7347 219.056 89.3561 219.849C88.2867 222.091 87.8991 223.84 87.8991 223.84C87.8642 223.932 87.9104 224.037 88.0028 224.072C88.0974 224.108 88.2011 224.06 88.236 223.968Z" fill="#9FC9D0"/>
<path fill-rule="evenodd" clip-rule="evenodd" d="M86.4726 221.976C86.4726 221.976 86.5357 220.516 87.6243 218.224C87.9477 217.543 88.3657 216.801 88.8818 215.974C89.1984 215.467 89.5613 214.94 89.9444 214.367C90.2836 213.861 90.6329 213.319 91.0262 212.757C91.5524 212.005 92.1215 211.217 92.7897 210.385C93.3835 209.647 94.0066 208.885 94.7402 208.095C93.8185 208.677 92.9959 209.239 92.2409 209.829C91.6741 210.272 91.1659 210.716 90.6926 211.165C90.1653 211.665 89.6931 212.16 89.2785 212.661C88.9731 213.031 88.6993 213.401 88.4604 213.772C88.057 214.398 87.7381 215.013 87.4755 215.6C87.2749 216.05 87.1116 216.48 86.9786 216.896C86.5932 218.104 86.4298 219.122 86.3746 219.938C86.2856 221.253 86.4726 221.976 86.4726 221.976Z" fill="#9FC9D0"/>
<path fill-rule="evenodd" clip-rule="evenodd" d="M84.3282 217.896C84.3282 217.896 84.7452 215.907 86.1469 213.334C86.3441 212.973 86.5571 212.604 86.7836 212.217C87.0912 211.694 87.4394 211.161 87.8102 210.605C88.0389 210.262 88.2722 209.908 88.5189 209.55C88.8694 209.04 89.2322 208.517 89.6469 207.995C90.0402 207.501 90.4537 207.011 90.9168 206.52C91.5704 205.827 92.2702 205.148 93.0973 204.492C92.109 204.922 91.2278 205.389 90.4154 205.922C89.8193 206.313 89.2829 206.73 88.7804 207.167C88.2395 207.639 87.7527 208.127 87.3222 208.637C87.0169 208.999 86.7419 209.372 86.4996 209.751C86.1086 210.361 85.7965 210.981 85.5351 211.584C85.3446 212.025 85.1846 212.454 85.0551 212.874C84.1637 215.766 84.3282 217.896 84.3282 217.896Z" fill="#9FC9D0"/>
<path fill-rule="evenodd" clip-rule="evenodd" d="M82.5074 213.841C82.5074 213.841 83.0685 211.873 84.5604 209.435C84.7734 209.087 85.0022 208.733 85.2444 208.365C85.5746 207.862 85.9453 207.354 86.3375 206.828C86.5808 206.501 86.8299 206.166 87.0913 205.828C87.4665 205.344 87.853 204.851 88.2925 204.369C88.7128 203.908 89.1534 203.456 89.6458 203.012C90.3456 202.381 91.0949 201.777 91.975 201.222C90.9575 201.537 90.0436 201.915 89.1951 202.374C88.5742 202.71 88.0131 203.083 87.4846 203.483C86.9189 203.911 86.4073 204.366 85.9487 204.849C85.6264 205.189 85.3334 205.543 85.0743 205.906C84.6585 206.486 84.3182 207.085 84.0297 207.671C83.8212 208.095 83.6421 208.511 83.4933 208.922C82.4882 211.694 82.5074 213.841 82.5074 213.841Z" fill="#9FC9D0"/>
<path fill-rule="evenodd" clip-rule="evenodd" d="M80.5579 208.503C80.5579 208.503 81.4469 206.737 83.3175 204.591C83.5812 204.288 83.8606 203.98 84.1547 203.658C84.5547 203.221 84.9931 202.78 85.4528 202.32C85.7379 202.035 86.0275 201.741 86.3284 201.445C86.7599 201.02 87.2005 200.584 87.6873 200.16C88.1527 199.756 88.6339 199.36 89.1601 198.971C89.9117 198.417 90.6982 197.889 91.5997 197.413C90.5833 197.639 89.6559 197.926 88.7758 198.292C88.1381 198.557 87.551 198.857 86.9887 199.186C86.3892 199.537 85.8359 199.913 85.3277 200.321C84.9705 200.609 84.6381 200.911 84.3361 201.226C83.8505 201.731 83.4335 202.259 83.0651 202.781C82.7969 203.161 82.5591 203.536 82.3495 203.909C80.9139 206.466 80.5579 208.503 80.5579 208.503Z" fill="#9FC9D0"/>
<path fill-rule="evenodd" clip-rule="evenodd" d="M79.4457 204.817C79.4457 204.817 80.2998 203.078 82.1602 201.029C82.4228 200.74 82.7011 200.447 82.9952 200.142C83.3941 199.728 83.8324 199.315 84.2944 198.884C84.5807 198.618 84.8714 198.345 85.1756 198.067C85.6095 197.673 86.0557 197.27 86.5504 196.88C87.0202 196.51 87.507 196.148 88.0412 195.798C88.7984 195.301 89.5928 194.832 90.5033 194.417C89.4914 194.574 88.5719 194.794 87.6975 195.097C87.0563 195.319 86.467 195.581 85.9024 195.871C85.2962 196.183 84.7373 196.526 84.2235 196.902C83.8606 197.168 83.5237 197.452 83.2172 197.751C82.7236 198.23 82.2999 198.736 81.927 199.238C81.6554 199.604 81.4154 199.967 81.2047 200.329C79.7657 202.805 79.4457 204.817 79.4457 204.817Z" fill="#9FC9D0"/>
<path fill-rule="evenodd" clip-rule="evenodd" d="M78.2885 197.795C78.2885 197.795 79.368 196.44 81.3917 195.019C81.6757 194.82 81.9743 194.621 82.2898 194.413C82.7158 194.131 83.1755 193.86 83.6589 193.575C83.9575 193.399 84.2618 193.216 84.5773 193.033C85.0292 192.771 85.49 192.502 85.9926 192.256C86.4715 192.022 86.9617 191.798 87.4947 191.593C88.2508 191.301 89.0294 191.039 89.9083 190.847C88.9889 190.762 88.1437 190.755 87.3166 190.832C86.7081 190.888 86.138 190.993 85.5836 191.129C84.9863 191.277 84.4263 191.462 83.9001 191.688C83.5271 191.849 83.1755 192.033 82.8487 192.235C82.3225 192.562 81.8549 192.928 81.4334 193.303C81.1269 193.577 80.852 193.853 80.6007 194.136C79.9167 194.902 79.4164 195.63 79.0502 196.247C78.5014 197.177 78.2885 197.795 78.2885 197.795Z" fill="#9FC9D0"/>
<path fill-rule="evenodd" clip-rule="evenodd" d="M78.1205 191.948C78.1205 191.948 79.0772 191.205 80.7821 190.353C81.3263 190.081 81.9382 189.811 82.6211 189.524C83.0571 189.34 83.5225 189.164 84.0048 188.965C84.4488 188.781 84.9006 188.576 85.3818 188.382C86.059 188.11 86.7565 187.839 87.5284 187.606C88.253 187.386 88.9843 187.179 89.8012 187.031C88.9617 186.903 88.1865 186.833 87.4123 186.833C86.8501 186.833 86.3193 186.874 85.7965 186.94C85.2353 187.011 84.7046 187.114 84.1975 187.254C83.838 187.355 83.4955 187.475 83.1709 187.616C82.647 187.844 82.1714 188.111 81.7354 188.388C81.4153 188.592 81.1224 188.799 80.8519 189.017C78.9555 190.538 78.1205 191.948 78.1205 191.948Z" fill="#9FC9D0"/>
<path fill-rule="evenodd" clip-rule="evenodd" d="M78.6377 187.35C78.6377 187.35 79.3408 187.004 80.622 186.587C81.0886 186.435 81.6159 186.3 82.2176 186.128C82.7022 185.989 83.2284 185.857 83.7873 185.692C84.0307 185.619 84.2741 185.527 84.5265 185.438C84.8894 185.311 85.2545 185.177 85.6443 185.04C86.5559 184.723 87.4856 184.399 88.5752 184.174C87.8901 184.044 87.267 183.954 86.6269 183.912C86.1672 183.882 85.7367 183.884 85.3052 183.903C84.8432 183.924 84.4071 183.966 83.9856 184.043C83.687 184.097 83.3997 184.168 83.1281 184.258C82.6842 184.404 82.2796 184.586 81.9066 184.775C81.6283 184.916 81.3748 185.061 81.1381 185.215C79.422 186.333 78.6377 187.35 78.6377 187.35Z" fill="#9FC9D0"/>
<path fill-rule="evenodd" clip-rule="evenodd" d="M79.5956 183.501C79.5956 183.501 80.6999 183.195 82.6594 182.907C82.9164 182.869 83.1812 182.832 83.4651 182.782C83.8415 182.717 84.2393 182.657 84.6573 182.57C84.9131 182.517 85.1734 182.452 85.4405 182.379C85.8213 182.275 86.2033 182.15 86.6135 182.031C87.0034 181.917 87.3876 181.801 87.8034 181.681C88.3995 181.51 88.9787 181.336 89.6323 181.183C88.9629 181.06 88.3567 180.962 87.7313 180.904C87.2851 180.862 86.8682 180.846 86.4467 180.844C85.9982 180.842 85.5746 180.856 85.161 180.901C84.8692 180.933 84.5863 180.98 84.317 181.045C83.8764 181.149 83.4708 181.289 83.0921 181.434C82.8093 181.544 82.5501 181.656 82.3045 181.778C80.4824 182.686 79.5956 183.501 79.5956 183.501Z" fill="#9FC9D0"/>
<path fill-rule="evenodd" clip-rule="evenodd" d="M81.2069 179.484C81.2069 179.484 82.1411 179.304 83.589 179.097C83.7896 179.069 83.9891 179.04 84.2043 178.999C84.4939 178.944 84.7947 178.895 85.1024 178.817C85.2951 178.768 85.4877 178.708 85.6827 178.641C85.9723 178.542 86.2495 178.427 86.5447 178.313C87.2997 178.021 88.0017 177.726 88.8142 177.553C88.3172 177.397 87.8631 177.284 87.3527 177.209C87.0101 177.158 86.6889 177.138 86.3475 177.13C86.0027 177.122 85.6748 177.133 85.3446 177.174C85.1215 177.202 84.904 177.246 84.6945 177.307C84.3643 177.404 84.0589 177.532 83.7705 177.669C83.5609 177.769 83.3693 177.87 83.1868 177.983C81.9055 178.775 81.2069 179.484 81.2069 179.484Z" fill="#9FC9D0"/>
<path fill-rule="evenodd" clip-rule="evenodd" d="M83.615 175.423C83.615 175.423 84.1874 175.335 85.4371 175.508C85.5836 175.529 85.7278 175.556 85.8946 175.571C86.1053 175.592 86.3261 175.626 86.5707 175.635C86.716 175.639 86.867 175.631 87.0237 175.619C87.2513 175.601 87.4733 175.561 87.7234 175.524C88.3105 175.436 88.8581 175.31 89.5883 175.25C89.2187 175.009 88.928 174.826 88.5798 174.645C88.3263 174.515 88.1032 174.423 87.8598 174.333C87.595 174.235 87.3527 174.163 87.1037 174.117C86.9256 174.083 86.751 174.068 86.5831 174.071C86.298 174.076 86.0388 174.119 85.7988 174.176C85.6095 174.222 85.4461 174.271 85.2872 174.334C84.9041 174.487 84.628 174.627 84.3835 174.787C83.8054 175.162 83.615 175.423 83.615 175.423Z" fill="#9FC9D0"/>
<path fill-rule="evenodd" clip-rule="evenodd" d="M85.8584 172.608C85.8584 172.608 86.3643 172.547 87.4123 172.707C87.5363 172.726 87.6523 172.753 87.7909 172.768C87.9645 172.786 88.1447 172.823 88.3442 172.827C88.4929 172.829 88.6462 172.81 88.8084 172.792C89.0496 172.765 89.2738 172.71 89.5431 172.665C89.9849 172.593 90.3533 172.494 90.8818 172.447C90.5787 172.197 90.3556 172.023 90.0604 171.836C89.8474 171.701 89.6626 171.614 89.4519 171.522C89.2254 171.421 89.018 171.354 88.7994 171.305C88.6451 171.272 88.4918 171.259 88.3453 171.262C88.1842 171.266 88.0332 171.288 87.889 171.322C87.6365 171.381 87.4224 171.445 87.2241 171.54C86.8973 171.694 86.6742 171.833 86.4691 171.996C86.0015 172.367 85.8584 172.608 85.8584 172.608Z" fill="#9FC9D0"/>
<path fill-rule="evenodd" clip-rule="evenodd" d="M88.7183 169.772C88.7183 169.772 89.0743 169.604 90.2124 169.698C90.333 169.709 90.4491 169.729 90.5888 169.733C90.7601 169.739 90.9415 169.759 91.1443 169.749C91.2638 169.743 91.3866 169.723 91.5151 169.697C91.7021 169.66 91.879 169.601 92.0864 169.54C92.5732 169.393 92.9923 169.213 93.6177 169.049C93.2808 168.856 93.0408 168.717 92.7309 168.575C92.5067 168.472 92.3196 168.407 92.1078 168.341C91.8756 168.267 91.6717 168.22 91.4587 168.194C91.3055 168.175 91.1567 168.176 91.017 168.191C90.8592 168.206 90.7139 168.241 90.5787 168.284C90.3296 168.363 90.1257 168.441 89.9409 168.547C89.613 168.734 89.4045 168.886 89.2242 169.065C88.769 169.518 88.7183 169.772 88.7183 169.772Z" fill="#9FC9D0"/>
<path fill-rule="evenodd" clip-rule="evenodd" d="M87.7595 170.651C87.7595 170.651 87.8136 170.071 88.0514 169.028C88.0818 168.897 88.1156 168.774 88.1404 168.628C88.1719 168.442 88.2159 168.253 88.2339 168.044C88.2452 167.918 88.2429 167.788 88.2373 167.653C88.2294 167.452 88.1978 167.261 88.1742 167.046C88.1156 166.502 88.0221 166.027 88.0356 165.39C87.7606 165.678 87.5634 165.905 87.3527 166.203C87.204 166.414 87.1037 166.604 86.9955 166.821C86.8828 167.047 86.8017 167.259 86.7408 167.487C86.6992 167.643 86.6766 167.799 86.6721 167.952C86.6653 168.202 86.6946 168.435 86.7408 168.656C86.7758 168.824 86.8152 168.968 86.8704 169.115C86.9966 169.451 87.1116 169.695 87.2479 169.927C87.5499 170.441 87.7595 170.651 87.7595 170.651Z" fill="#9FC9D0"/>
<path fill-rule="evenodd" clip-rule="evenodd" d="M85.0754 173.517C85.0754 173.517 85.0044 172.694 85.0348 171.341C85.0393 171.161 85.0449 170.982 85.0416 170.786C85.0359 170.527 85.0404 170.256 85.0202 169.971C85.0078 169.796 84.9818 169.618 84.9525 169.437C84.9086 169.169 84.8466 168.91 84.7903 168.628C84.6494 167.93 84.4905 167.273 84.45 166.482C84.2077 166.911 84.0218 167.284 83.8561 167.716C83.7401 168.018 83.6623 168.299 83.5925 168.599C83.5192 168.911 83.4708 169.207 83.4505 169.509C83.437 169.716 83.4415 169.922 83.464 170.119C83.5012 170.436 83.5756 170.733 83.6612 171.01C83.7254 171.216 83.793 171.402 83.8764 171.582C84.468 172.867 85.0754 173.517 85.0754 173.517Z" fill="#9FC9D0"/>
<path fill-rule="evenodd" clip-rule="evenodd" d="M83.0471 176.258C83.0471 176.258 82.8296 175.453 82.6313 174.144C82.5738 173.763 82.5276 173.358 82.469 172.908C82.4352 172.647 82.4115 172.379 82.3642 172.102C82.3056 171.761 82.2301 171.411 82.1546 171.048C82.0442 170.522 81.909 170.004 81.8222 169.431C81.7332 168.842 81.6475 168.282 81.6419 167.644C81.3748 168.176 81.1743 168.666 81.0165 169.203C80.9049 169.581 80.8373 169.942 80.7855 170.316C80.7303 170.706 80.7066 171.081 80.7168 171.455C80.7235 171.713 80.7506 171.966 80.7979 172.208C80.8734 172.594 80.9895 172.956 81.1202 173.293C81.216 173.54 81.3162 173.765 81.4312 173.98C82.2245 175.469 83.0471 176.258 83.0471 176.258Z" fill="#9FC9D0"/>
<path fill-rule="evenodd" clip-rule="evenodd" d="M80.4192 181.236C80.4192 181.236 79.8174 180.368 79.2495 178.778C79.0726 178.281 78.9148 177.725 78.7503 177.096C78.6467 176.701 78.5588 176.279 78.4483 175.836C78.3481 175.433 78.2264 175.019 78.1216 174.575C77.9751 173.958 77.8275 173.321 77.7227 172.609C77.6258 171.951 77.5345 171.292 77.5041 170.547C77.2539 171.269 77.068 171.926 76.9418 172.595C76.8482 173.092 76.7998 173.559 76.775 174.023C76.7479 174.531 76.757 175.011 76.8065 175.475C76.8426 175.807 76.9023 176.127 76.9835 176.43C77.1176 176.928 77.299 177.381 77.4973 177.796C77.6449 178.105 77.8015 178.385 77.9694 178.645C78.4382 179.372 78.9058 179.919 79.3239 180.332C79.9673 180.968 80.4192 181.236 80.4192 181.236Z" fill="#9FC9D0"/>
<path fill-rule="evenodd" clip-rule="evenodd" d="M79.1268 185.13C79.1268 185.13 78.4248 184.265 77.5165 182.89C77.2134 182.432 76.8979 181.929 76.5644 181.381C76.4404 181.177 76.3153 180.969 76.1812 180.759C76.0528 180.559 75.9209 180.356 75.7823 180.154C75.5108 179.759 75.2302 179.367 74.9631 178.947C74.3884 178.043 73.8622 177.13 73.5614 176.046C73.4859 176.748 73.4915 177.406 73.5771 178.085C73.6357 178.553 73.7394 178.994 73.869 179.439C74.0008 179.892 74.1631 180.322 74.3614 180.735C74.4955 181.015 74.6487 181.282 74.8189 181.532C75.0848 181.923 75.3812 182.274 75.6843 182.596C75.9007 182.827 76.117 183.036 76.3401 183.228C77.8399 184.52 79.1268 185.13 79.1268 185.13Z" fill="#9FC9D0"/>
<path fill-rule="evenodd" clip-rule="evenodd" d="M78.3719 189.054C78.3719 189.054 77.2709 188.099 75.8714 186.527C75.3981 185.995 74.899 185.402 74.384 184.75C74.1902 184.505 73.9964 184.254 73.7958 184C73.602 183.757 73.4059 183.509 73.2042 183.26C72.8121 182.775 72.4165 182.284 72.0413 181.757C71.248 180.642 70.5359 179.462 70.1077 178.069C70.1122 178.971 70.2181 179.82 70.4254 180.66C70.5697 181.244 70.7635 181.796 70.9922 182.337C71.2266 182.893 71.4959 183.419 71.8058 183.916C72.0165 184.255 72.2475 184.576 72.4943 184.875C72.8808 185.342 73.2989 185.76 73.7203 186.14C74.0212 186.412 74.3209 186.658 74.624 186.883C76.6489 188.385 78.3719 189.054 78.3719 189.054Z" fill="#9FC9D0"/>
<path fill-rule="evenodd" clip-rule="evenodd" d="M78.1837 194.152C78.1837 194.152 76.8191 193.706 75.0116 192.925C74.3772 192.651 73.7023 192.341 73.0025 191.997C72.7343 191.865 72.4639 191.729 72.1901 191.596C71.9219 191.465 71.6526 191.335 71.3821 191.205C70.839 190.946 70.3037 190.687 69.7944 190.384C68.6236 189.687 67.6151 188.873 67.0247 187.683C67.2083 188.822 67.721 189.816 68.4704 190.708C68.956 191.287 69.533 191.797 70.1742 192.24C70.6407 192.562 71.1421 192.84 71.6593 193.065C72.1844 193.294 72.7242 193.462 73.2538 193.6C73.9434 193.78 74.6026 193.899 75.2167 193.979C76.952 194.21 78.1837 194.152 78.1837 194.152Z" fill="#9FC9D0"/>
<path fill-rule="evenodd" clip-rule="evenodd" d="M78.6243 200.406C78.6243 200.406 77.3115 200.486 75.4714 200.35C74.8404 200.304 74.1631 200.23 73.4453 200.126C73.1749 200.087 72.9011 200.043 72.6228 200.002C72.3534 199.963 72.0819 199.922 71.8069 199.883C71.2661 199.806 70.7252 199.726 70.1798 199.598C69.0101 199.322 67.8799 198.924 66.8444 198.125C67.2985 198.811 67.8134 199.371 68.4129 199.857C68.8366 200.199 69.2851 200.476 69.7584 200.721C70.2418 200.971 70.7376 201.17 71.2491 201.318C71.594 201.419 71.9433 201.491 72.2915 201.535C72.829 201.602 73.3608 201.609 73.8735 201.585C74.2341 201.569 74.5801 201.535 74.9159 201.482C77.1019 201.134 78.6243 200.406 78.6243 200.406Z" fill="#9FC9D0"/>
<path fill-rule="evenodd" clip-rule="evenodd" d="M79.689 205.492C79.689 205.492 78.6298 205.544 77.05 205.534C76.5688 205.531 76.0561 205.521 75.5017 205.515C75.1716 205.512 74.8335 205.499 74.4864 205.509C74.047 205.522 73.5985 205.55 73.1455 205.578C72.4649 205.62 71.7978 205.681 71.1161 205.674C70.3634 205.666 69.6602 205.64 68.9503 205.486C69.5115 205.873 70.0941 206.182 70.751 206.438C71.1814 206.606 71.6141 206.73 72.0671 206.837C72.5167 206.941 72.9652 207.018 73.4216 207.059C73.7258 207.085 74.0301 207.092 74.3298 207.078C74.7941 207.055 75.2448 206.99 75.6753 206.909C75.9829 206.851 76.2725 206.784 76.5531 206.703C78.4428 206.161 79.689 205.492 79.689 205.492Z" fill="#9FC9D0"/>
<path fill-rule="evenodd" clip-rule="evenodd" d="M78.2771 197.427C78.2771 197.427 76.7323 197.107 74.6702 196.653C73.9298 196.49 73.1377 196.298 72.3162 196.141C71.7979 196.041 71.2705 195.969 70.7522 195.889C69.9296 195.764 69.1419 195.659 68.4174 195.476C67.49 195.241 66.7057 194.964 66.1344 194.497C66.6201 195.279 67.4686 195.952 68.5605 196.525C69.1645 196.842 69.8236 197.113 70.5268 197.327C71.026 197.479 71.5432 197.599 72.0615 197.675C72.5878 197.753 73.1129 197.779 73.6222 197.793C74.2904 197.809 74.9158 197.787 75.4939 197.75C77.1503 197.642 78.2771 197.427 78.2771 197.427Z" fill="#9FC9D0"/>
<path fill-rule="evenodd" clip-rule="evenodd" d="M78.1104 191.607C78.1104 191.607 77.2145 191.01 75.948 190.109C75.5547 189.828 75.1389 189.527 74.6904 189.211C74.4188 189.019 74.1473 188.818 73.8577 188.633C73.4847 188.394 73.0993 188.165 72.7162 187.937C72.119 187.581 71.5364 187.258 71.0113 186.875C70.3792 186.414 69.8417 185.966 69.4619 185.409C69.5938 186.045 69.8676 186.655 70.2699 187.283C70.5132 187.662 70.7983 188.014 71.1195 188.369C71.4237 188.705 71.7505 189.021 72.11 189.314C72.3432 189.505 72.59 189.682 72.8447 189.838C73.2345 190.077 73.6402 190.277 74.0402 190.455C74.3219 190.58 74.5969 190.688 74.873 190.783C76.6905 191.401 78.1104 191.607 78.1104 191.607Z" fill="#9FC9D0"/>
<path fill-rule="evenodd" clip-rule="evenodd" d="M79.0873 202.987C79.0873 202.987 77.7193 203.025 75.7766 202.956C75.1073 202.932 74.3827 202.897 73.6176 202.851C73.3258 202.833 73.0294 202.815 72.7297 202.803C72.4378 202.791 72.1426 202.781 71.8474 202.777C71.2569 202.768 70.6687 202.765 70.0816 202.733C68.7283 202.657 67.4482 202.493 66.3225 201.958C66.9051 202.51 67.5699 202.955 68.3328 203.327C68.8241 203.566 69.3345 203.753 69.8709 203.913C70.396 204.069 70.929 204.192 71.4733 204.271C71.8338 204.323 72.1967 204.354 72.5573 204.36C73.1105 204.37 73.6526 204.331 74.1765 204.272C74.5461 204.23 74.8988 204.176 75.2414 204.108C77.4996 203.658 79.0873 202.987 79.0873 202.987Z" fill="#9FC9D0"/>
<path fill-rule="evenodd" clip-rule="evenodd" d="M80.301 208.029C80.301 208.029 78.8812 208.406 76.8889 208.814C76.1903 208.957 75.4342 209.103 74.6409 209.244C74.3344 209.298 74.0256 209.352 73.7146 209.411C73.4093 209.47 73.1039 209.531 72.7985 209.596C72.1822 209.728 71.5759 209.86 70.9697 209.953C69.5093 210.179 68.1436 210.234 66.9717 209.748C67.8247 210.446 68.9087 210.858 70.1448 211.055C70.8919 211.175 71.6717 211.208 72.4661 211.156C73.0385 211.119 73.6144 211.035 74.1721 210.906C74.7389 210.774 75.2832 210.588 75.8038 210.391C76.4844 210.133 77.1064 209.848 77.6698 209.564C79.2767 208.753 80.301 208.029 80.301 208.029Z" fill="#9FC9D0"/>
<path fill-rule="evenodd" clip-rule="evenodd" d="M81.7084 211.817C81.7084 211.817 80.2649 212.335 78.1983 212.916C77.4794 213.118 76.6974 213.326 75.8703 213.529C75.5536 213.607 75.2325 213.684 74.9091 213.768C74.5936 213.85 74.2747 213.933 73.9569 214.021C73.3214 214.197 72.6904 214.373 72.0514 214.513C70.5742 214.835 69.1442 215.007 67.801 214.7C68.5774 215.132 69.4248 215.411 70.3556 215.567C70.9494 215.668 71.5545 215.706 72.1788 215.704C72.785 215.701 73.3912 215.659 73.9964 215.566C74.3952 215.505 74.7919 215.421 75.1773 215.313C75.7666 215.148 76.3334 214.935 76.8732 214.709C77.2518 214.549 77.6112 214.38 77.9549 214.2C80.2086 213.026 81.7084 211.817 81.7084 211.817Z" fill="#9FC9D0"/>
<path fill-rule="evenodd" clip-rule="evenodd" d="M83.4437 216.007C83.4437 216.007 82.2447 216.654 80.3472 217.346C79.7173 217.575 79.022 217.804 78.2614 218.029C77.9786 218.113 77.6901 218.195 77.396 218.284C77.1143 218.369 76.8281 218.455 76.5373 218.548C75.9773 218.726 75.4082 218.913 74.8065 219.064C74.3051 219.19 73.8036 219.307 73.274 219.399C72.4943 219.532 71.7156 219.63 70.875 219.631C71.6965 219.901 72.4841 220.083 73.2932 220.179C73.8645 220.248 74.4166 220.265 74.971 220.252C75.548 220.237 76.1058 220.184 76.6489 220.086C77.0241 220.018 77.3892 219.928 77.7385 219.814C78.2918 219.635 78.8068 219.41 79.2868 219.169C79.6327 218.995 79.955 218.815 80.2581 218.622C82.3101 217.321 83.4437 216.007 83.4437 216.007Z" fill="#9FC9D0"/>
<path fill-rule="evenodd" clip-rule="evenodd" d="M85.2928 219.809C85.2928 219.809 84.1231 220.395 82.3067 221.074C81.7004 221.301 81.0345 221.533 80.3122 221.769C80.0429 221.857 79.7668 221.946 79.4873 222.042C79.2192 222.134 78.9465 222.229 78.6726 222.33C78.1396 222.528 77.6033 222.738 77.0387 222.918C76.5621 223.07 76.0899 223.215 75.593 223.337C74.8448 223.519 74.1078 223.668 73.3157 223.723C74.1056 223.937 74.8707 224.066 75.6629 224.115C76.2094 224.149 76.7379 224.136 77.2709 224.094C77.8185 224.051 78.3481 223.976 78.8665 223.858C79.2203 223.778 79.5651 223.677 79.8941 223.555C80.4125 223.364 80.8959 223.13 81.3489 222.887C81.6745 222.711 81.9765 222.531 82.2616 222.341C84.193 221.048 85.2928 219.809 85.2928 219.809Z" fill="#9FC9D0"/>
<path fill-rule="evenodd" clip-rule="evenodd" d="M87.115 223.079C87.115 223.079 86.1775 223.718 84.7779 224.512C84.299 224.784 83.7784 225.064 83.2206 225.354C83.0099 225.463 82.7958 225.572 82.5817 225.688C82.3744 225.801 84.8343 225.916 85.0405 225.705C86.387 224.333 87.115 223.079 87.115 223.079Z" fill="#9FC9D0"/>
<path fill-rule="evenodd" clip-rule="evenodd" d="M67.6015 226.029C67.6015 226.029 66.1265 226.662 63.2621 225.961C55.9208 224.164 42.5655 219.935 40.5823 212.609C38.243 203.963 54.9539 216.326 53.9342 210.367C52.9144 204.407 37.3697 196.411 39.1591 191.464C40.9485 186.517 51.7515 197.009 53.7674 194.489C55.7833 191.968 43.8141 179.807 47.1968 173.803C50.5796 167.8 53.1104 178.105 57.1096 185.951C61.1087 193.797 65.5067 182.936 70.4175 184.168C77.1131 185.847 64.3788 199.752 67.8415 205.227C71.0338 210.276 79.2653 189.669 81.0908 203.269C82.7991 215.998 74.7704 222.913 70.5403 225.624C69.0833 226.558 67.6015 226.029 67.6015 226.029Z" fill="#CAE7E4"/>
<path fill-rule="evenodd" clip-rule="evenodd" d="M65.2082 220.086C64.0926 219.968 59.5876 219.444 55.2222 218.282C52.7995 217.637 50.4196 216.797 48.69 215.718C48.6393 215.686 48.575 215.698 48.5469 215.744C48.5187 215.792 48.5378 215.856 48.5886 215.889C50.3216 217.011 52.7173 217.907 55.1625 218.604C59.8242 219.934 64.6594 220.542 65.3783 220.628C66.0691 222.83 66.6212 224.606 66.9717 225.739C67.0201 225.896 67.5374 225.827 67.5013 225.715C67.0325 224.236 66.1897 221.593 65.1293 218.308C65.5879 217.952 69.4282 214.93 72.6487 211.156C74.2138 209.321 75.6325 207.309 76.4472 205.339C76.4686 205.289 76.4416 205.227 76.3875 205.199C76.3334 205.172 76.2714 205.193 76.25 205.243C75.4072 207.176 73.9626 209.139 72.3771 210.924C69.3696 214.311 65.8516 217.059 64.9468 217.747C63.4199 213.026 61.4773 207.094 59.5481 201.407C59.4602 201.146 59.3712 200.886 59.2833 200.627C59.3205 200.61 59.3521 200.585 59.3768 200.55L67.4641 188.903C67.4957 188.859 67.481 188.794 67.4326 188.758C67.3841 188.722 67.3176 188.729 67.2861 188.774L59.0737 200.012C56.9136 193.682 54.8154 187.815 53.3866 184.47C53.3641 184.416 53.301 184.385 53.248 184.402C53.1939 184.418 53.1691 184.476 53.1928 184.531C54.6982 188.123 56.9519 194.623 59.2236 201.479C59.467 202.213 59.7104 202.953 59.9538 203.691C58.7278 203.122 53.9252 200.863 50.307 198.76C48.5446 197.735 47.0639 196.752 46.4262 196.017C46.3867 195.971 46.3202 195.961 46.2763 195.994C46.2335 196.028 46.2301 196.092 46.2695 196.139C46.9039 196.898 48.3914 197.935 50.1672 199.013C54.3196 201.535 60.0586 204.297 60.0586 204.297C60.0924 204.313 60.1284 204.322 60.1622 204.324C62.0407 210.061 63.8628 215.801 65.2082 220.086Z" fill="#9FC9D0"/>
<path fill-rule="evenodd" clip-rule="evenodd" d="M222.62 226.702C222.62 227.238 223.286 226.702 223.846 226.702C228.197 221.778 237.961 210.225 245.971 197.07C250.818 189.112 255.022 180.567 257.004 172.55C257.039 172.41 256.953 172.267 256.812 172.23C256.672 172.196 256.529 172.281 256.492 172.422C254.475 180.373 250.245 188.833 245.383 196.71C236.966 210.347 226.654 222.233 222.62 226.702Z" fill="#9FC9D0"/>
<path fill-rule="evenodd" clip-rule="evenodd" d="M223.543 226.702C223.543 226.702 219.167 221.224 221.529 215.127C223.891 209.031 226.793 220.498 223.543 226.702Z" fill="#B5DED9"/>
<path fill-rule="evenodd" clip-rule="evenodd" d="M229.846 218.943C229.846 218.943 224.625 209.193 227.634 206.058C230.644 202.923 231.937 212.555 229.846 218.943Z" fill="#08A4DD"/>
<path fill-rule="evenodd" clip-rule="evenodd" d="M235.466 211.782C235.466 211.782 230.49 204.2 232.459 200.995C234.428 197.789 237.701 203.709 235.466 211.782Z" fill="#08A4DD"/>
<path fill-rule="evenodd" clip-rule="evenodd" d="M239.731 205.922C239.731 205.922 234.522 198.788 237.49 195.113C240.458 191.437 242.105 199.371 239.731 205.922Z" fill="#08A4DD"/>
<path fill-rule="evenodd" clip-rule="evenodd" d="M244.709 198.448C244.709 198.448 240.074 192.721 242.188 189.011C244.301 185.303 245.555 193.381 244.709 198.448Z" fill="#08A4DD"/>
<path fill-rule="evenodd" clip-rule="evenodd" d="M248.481 192.114C248.481 192.114 242.433 184.654 245.409 181.213C248.385 177.773 248.683 189.04 248.481 192.114Z" fill="#08A4DD"/>
<path fill-rule="evenodd" clip-rule="evenodd" d="M253.053 182.504C253.053 182.504 247.164 175.266 249.455 172.005C251.747 168.745 253.078 179.929 253.053 182.504Z" fill="#08A4DD"/>
<path fill-rule="evenodd" clip-rule="evenodd" d="M256.274 174.247C256.274 174.247 252.82 166.045 256.463 163.369C260.107 160.693 259.649 171.034 256.274 174.247Z" fill="#08A4DD"/>
<path fill-rule="evenodd" clip-rule="evenodd" d="M253.053 182.504C253.053 182.504 260.744 175.832 262.865 178.327C264.986 180.82 256.003 184.519 253.053 182.504Z" fill="#08A4DD"/>
<path fill-rule="evenodd" clip-rule="evenodd" d="M248.481 192.115C248.481 192.115 259.332 185.383 259.919 189.726C260.506 194.069 251.365 195.357 248.481 192.115Z" fill="#08A4DD"/>
<path fill-rule="evenodd" clip-rule="evenodd" d="M244.709 198.448C244.709 198.448 255.358 195.346 255.348 199.403C255.337 203.459 248.056 201.383 244.709 198.448Z" fill="#08A4DD"/>
<path fill-rule="evenodd" clip-rule="evenodd" d="M239.732 205.919C239.732 205.919 247.65 205.114 249.339 207.9C251.027 210.687 244.3 210.815 239.732 205.919Z" fill="#08A4DD"/>
<path fill-rule="evenodd" clip-rule="evenodd" d="M235.466 211.782C235.466 211.782 245.11 212.188 246.418 215.874C247.725 219.561 237.223 215.788 235.466 211.782Z" fill="#08A4DD"/>
<path fill-rule="evenodd" clip-rule="evenodd" d="M229.846 218.943C229.846 218.943 238.766 219.457 240.734 222.912C242.701 226.366 232.908 225.997 229.846 218.943Z" fill="#08A4DD"/>
<path fill-rule="evenodd" clip-rule="evenodd" d="M231.623 172.937C234.958 168.017 234.281 166.433 234.281 166.433C234.281 166.433 237.776 170.21 241.089 181.122L237.048 182.993L241.592 182.837C242.508 186.335 243.133 190.22 243.138 194.319C243.144 198.753 242.516 203.377 241.206 207.729L234.201 207.388L239.978 211.224C237.444 217.483 233.342 222.839 227.504 225.723C221.449 225.784 209.243 226.588 208.599 225.805C206.244 222.946 201.129 215.212 204.531 205.165L210.399 205.955L205.026 203.839C206.637 199.877 209.596 195.585 214.556 191.113C216.334 189.509 217.955 188.003 219.428 186.59L223.304 187.667L220.646 185.411C225.861 180.315 229.106 176.491 231.118 173.66L232.412 174.339L231.623 172.937Z" fill="#F69B6E"/>
<path fill-rule="evenodd" clip-rule="evenodd" d="M209.311 225.505C209.225 225.873 210.415 226.577 210.611 225.697C211.049 223.737 212.129 219.774 214.535 214.63C216.134 211.21 218.313 207.269 221.282 203.049C225.028 197.679 230.716 189.724 233.677 181.876C235.76 176.359 236.497 170.897 234.281 166.432C236.351 170.922 235.472 176.322 233.272 181.75C230.136 189.486 224.317 197.274 220.475 202.533C217.403 206.778 215.13 210.748 213.461 214.203C210.939 219.423 209.787 223.47 209.311 225.505Z" fill="white"/>
<path fill-rule="evenodd" clip-rule="evenodd" d="M187.072 225.783C190.174 226.29 196.422 225.568 202.888 225.816C209.825 223.524 217.68 219.775 219.164 214.292C221.503 205.646 204.792 218.008 205.812 212.049C206.832 206.09 222.376 198.094 220.587 193.147C218.798 188.2 207.995 198.692 205.979 196.171C203.963 193.65 215.932 181.49 212.549 175.486C209.167 169.483 206.636 179.787 202.637 187.633C198.637 195.479 194.239 184.619 189.329 185.85C182.633 187.529 195.367 201.435 191.905 206.91C188.712 211.958 180.481 191.352 178.655 204.951C177.204 215.755 182.769 222.372 187.072 225.783Z" fill="#9FC9D0"/>
<path fill-rule="evenodd" clip-rule="evenodd" d="M194.538 221.767C195.653 221.649 200.159 221.125 204.524 219.963C206.947 219.319 209.327 218.478 211.056 217.4C211.107 217.367 211.171 217.378 211.199 217.425C211.228 217.473 211.208 217.537 211.158 217.57C209.425 218.692 207.029 219.588 204.584 220.285C199.922 221.615 195.087 222.223 194.368 222.309C193.933 223.697 193.552 224.917 193.243 225.912C193.321 226.02 192.527 226.51 192.713 225.927C193.194 224.42 193.848 222.373 194.618 219.989C194.159 219.633 190.319 216.611 187.099 212.837C185.534 211.002 184.115 208.99 183.3 207.02C183.279 206.97 183.306 206.908 183.36 206.881C183.414 206.855 183.476 206.874 183.497 206.924C184.34 208.857 185.785 210.82 187.37 212.605C190.378 215.992 193.896 218.74 194.801 219.428C196.327 214.708 198.27 208.775 200.199 203.088C200.287 202.827 200.376 202.567 200.464 202.308C200.427 202.291 200.395 202.266 200.371 202.231L192.283 190.584C192.252 190.54 192.265 190.475 192.315 190.439C192.363 190.403 192.43 190.41 192.461 190.455L200.674 201.693C202.834 195.364 204.932 189.496 206.361 186.151C206.383 186.097 206.446 186.066 206.499 186.084C206.554 186.101 206.578 186.158 206.555 186.213C205.049 189.806 202.796 196.305 200.524 203.161C200.28 203.896 200.037 204.635 199.794 205.373C201.02 204.804 205.822 202.546 209.44 200.442C211.203 199.418 212.683 198.434 213.321 197.699C213.361 197.653 213.427 197.643 213.47 197.677C213.513 197.71 213.516 197.775 213.477 197.821C212.841 198.58 211.355 199.617 209.579 200.695C205.427 203.217 199.688 205.979 199.688 205.979C199.653 205.995 199.618 206.004 199.583 206.006C197.706 211.742 195.885 217.482 194.538 221.767Z" fill="white"/>
<path fill-rule="evenodd" clip-rule="evenodd" d="M178.542 220.996C183.921 214.17 202.927 165.95 191.472 162.472C184.617 160.392 187.786 191.454 176.238 219.2C170.948 231.913 177.94 221.76 178.542 220.996Z" fill="#CAE7E4"/>
<path fill-rule="evenodd" clip-rule="evenodd" d="M174.209 225.641C174.209 225.641 180.951 215.148 186.043 195.023C188.311 186.059 190.253 175.186 191.127 162.48C191.131 162.422 191.181 162.378 191.239 162.382C191.296 162.385 191.34 162.436 191.337 162.493C190.524 175.223 188.633 186.123 186.406 195.113C181.389 215.355 174.662 225.928 174.662 225.928C174.582 226.053 174.416 226.089 174.291 226.009C174.165 225.932 174.129 225.766 174.209 225.641Z" fill="#9FC9D0"/>
<path fill-rule="evenodd" clip-rule="evenodd" d="M9.03326 226.086C9.03326 225.46 9.29244 224.951 9.61246 224.951C22.3502 224.951 240.942 224.951 253.68 224.951C254 224.951 254.259 225.46 254.259 226.086C254.259 226.713 254 227.22 253.68 227.22C240.942 227.22 22.3502 227.22 9.61246 227.22C9.29244 227.221 9.03326 226.713 9.03326 226.086Z" fill="#08A4DD"/>
</svg>
